<svg width="32" height="32" viewBox="0 0 32 32" fill="none" xmlns="http://www.w3.org/2000/svg">
<path d="M15.1039 29.2015C15.6388 29.5 16.2825 29.4835 16.8144 29.1795C20.3974 27.1318 26.6238 22.4179 29.069 16.2948C32.6581 8.3224 24.2309 1.95834 18.4066 6.5356C17.799 7.01307 17.0351 7.55954 16.5094 8.07719C16.2717 8.31124 15.8528 8.33511 15.6061 8.11061C14.915 7.48177 13.8348 6.67511 13.1411 6.20577C8.1757 2.84639 -0.858914 7.27463 2.99493 16.7255C4.40669 20.9677 11.1342 26.9862 15.1039 29.2015Z" fill="url(#paint0_radial_157_977)"/>
<path d="M15.1039 29.2015C15.6388 29.5 16.2825 29.4835 16.8144 29.1795C20.3974 27.1318 26.6238 22.4179 29.069 16.2948C32.6581 8.3224 24.2309 1.95834 18.4066 6.5356C17.799 7.01307 17.0351 7.55954 16.5094 8.07719C16.2717 8.31124 15.8528 8.33511 15.6061 8.11061C14.915 7.48177 13.8348 6.67511 13.1411 6.20577C8.1757 2.84639 -0.858914 7.27463 2.99493 16.7255C4.40669 20.9677 11.1342 26.9862 15.1039 29.2015Z" fill="url(#paint1_radial_157_977)"/>
<path d="M15.1039 29.2015C15.6388 29.5 16.2825 29.4835 16.8144 29.1795C20.3974 27.1318 26.6238 22.4179 29.069 16.2948C32.6581 8.3224 24.2309 1.95834 18.4066 6.5356C17.799 7.01307 17.0351 7.55954 16.5094 8.07719C16.2717 8.31124 15.8528 8.33511 15.6061 8.11061C14.915 7.48177 13.8348 6.67511 13.1411 6.20577C8.1757 2.84639 -0.858914 7.27463 2.99493 16.7255C4.40669 20.9677 11.1342 26.9862 15.1039 29.2015Z" fill="url(#paint2_linear_157_977)"/>
<path d="M15.1039 29.2015C15.6388 29.5 16.2825 29.4835 16.8144 29.1795C20.3974 27.1318 26.6238 22.4179 29.069 16.2948C32.6581 8.3224 24.2309 1.95834 18.4066 6.5356C17.799 7.01307 17.0351 7.55954 16.5094 8.07719C16.2717 8.31124 15.8528 8.33511 15.6061 8.11061C14.915 7.48177 13.8348 6.67511 13.1411 6.20577C8.1757 2.84639 -0.858914 7.27463 2.99493 16.7255C4.40669 20.9677 11.1342 26.9862 15.1039 29.2015Z" fill="url(#paint3_linear_157_977)"/>
<path d="M15.1039 29.2015C15.6388 29.5 16.2825 29.4835 16.8144 29.1795C20.3974 27.1318 26.6238 22.4179 29.069 16.2948C32.6581 8.3224 24.2309 1.95834 18.4066 6.5356C17.799 7.01307 17.0351 7.55954 16.5094 8.07719C16.2717 8.31124 15.8528 8.33511 15.6061 8.11061C14.915 7.48177 13.8348 6.67511 13.1411 6.20577C8.1757 2.84639 -0.858914 7.27463 2.99493 16.7255C4.40669 20.9677 11.1342 26.9862 15.1039 29.2015Z" fill="url(#paint4_radial_157_977)"/>
<path d="M15.1039 29.2015C15.6388 29.5 16.2825 29.4835 16.8144 29.1795C20.3974 27.1318 26.6238 22.4179 29.069 16.2948C32.6581 8.3224 24.2309 1.95834 18.4066 6.5356C17.799 7.01307 17.0351 7.55954 16.5094 8.07719C16.2717 8.31124 15.8528 8.33511 15.6061 8.11061C14.915 7.48177 13.8348 6.67511 13.1411 6.20577C8.1757 2.84639 -0.858914 7.27463 2.99493 16.7255C4.40669 20.9677 11.1342 26.9862 15.1039 29.2015Z" fill="url(#paint5_radial_157_977)"/>
<path d="M15.1039 29.2015C15.6388 29.5 16.2825 29.4835 16.8144 29.1795C20.3974 27.1318 26.6238 22.4179 29.069 16.2948C32.6581 8.3224 24.2309 1.95834 18.4066 6.5356C17.799 7.01307 17.0351 7.55954 16.5094 8.07719C16.2717 8.31124 15.8528 8.33511 15.6061 8.11061C14.915 7.48177 13.8348 6.67511 13.1411 6.20577C8.1757 2.84639 -0.858914 7.27463 2.99493 16.7255C4.40669 20.9677 11.1342 26.9862 15.1039 29.2015Z" fill="url(#paint6_radial_157_977)"/>
<path d="M15.1039 29.2015C15.6388 29.5 16.2825 29.4835 16.8144 29.1795C20.3974 27.1318 26.6238 22.4179 29.069 16.2948C32.6581 8.3224 24.2309 1.95834 18.4066 6.5356C17.799 7.01307 17.0351 7.55954 16.5094 8.07719C16.2717 8.31124 15.8528 8.33511 15.6061 8.11061C14.915 7.48177 13.8348 6.67511 13.1411 6.20577C8.1757 2.84639 -0.858914 7.27463 2.99493 16.7255C4.40669 20.9677 11.1342 26.9862 15.1039 29.2015Z" fill="url(#paint7_radial_157_977)"/>
<path d="M15.1039 29.2015C15.6388 29.5 16.2825 29.4835 16.8144 29.1795C20.3974 27.1318 26.6238 22.4179 29.069 16.2948C32.6581 8.3224 24.2309 1.95834 18.4066 6.5356C17.799 7.01307 17.0351 7.55954 16.5094 8.07719C16.2717 8.31124 15.8528 8.33511 15.6061 8.11061C14.915 7.48177 13.8348 6.67511 13.1411 6.20577C8.1757 2.84639 -0.858914 7.27463 2.99493 16.7255C4.40669 20.9677 11.1342 26.9862 15.1039 29.2015Z" fill="url(#paint8_radial_157_977)"/>
<g filter="url(#filter0_f_157_977)">
<path d="M15.7954 10.5408V17.3635C15.7954 18.2684 16.8911 18.6973 17.4551 17.9897C19.2002 15.8007 20.6078 13.1389 19.037 10.9647C18.4347 10.131 17.281 9.59695 16.3382 9.76686C15.9855 9.83043 15.7954 10.1824 15.7954 10.5408Z" fill="#2EBC6F"/>
</g>
<g filter="url(#filter1_f_157_977)">
<path d="M25.9077 6.91063C28.5059 7.98004 29.2884 12.0627 27.6557 16.0294C26.0229 19.9961 22.5931 22.3449 19.995 21.2755C17.3969 20.2061 16.6143 16.1235 18.2471 12.1567C19.8798 8.18998 23.3096 5.84122 25.9077 6.91063Z" fill="url(#paint9_radial_157_977)"/>
</g>
<g filter="url(#filter2_f_157_977)">
<path d="M14.8398 9.84618L15.0448 20.2124C8.16984 13.5249 6.93871 8.7342 9.27732 7.12743C10.9473 5.98002 14.0899 8.28368 14.8398 9.84618Z" fill="url(#paint10_radial_157_977)"/>
</g>
<g filter="url(#filter3_f_157_977)">
<path d="M21.8312 6.38789C22.9179 6.25299 26.6175 6.50935 27.8731 9.71009" stroke="url(#paint11_linear_157_977)" stroke-opacity="0.5" stroke-width="0.25" stroke-linecap="round"/>
</g>
<g filter="url(#filter4_f_157_977)">
<path d="M8.44061 6.41309C9.52726 6.27818 12.4645 6.41309 14.8396 9.84583" stroke="url(#paint12_linear_157_977)" stroke-opacity="0.5" stroke-width="0.25" stroke-linecap="round"/>
</g>
<defs>
<filter id="filter0_f_157_977" x="13.7954" y="7.73535" width="7.92236" height="12.6079" filterUnits="userSpaceOnUse" color-interpolation-filters="sRGB">
<feFlood flood-opacity="0" result="BackgroundImageFix"/>
<feBlend mode="normal" in="SourceGraphic" in2="BackgroundImageFix" result="shape"/>
<feGaussianBlur stdDeviation="1" result="effect1_foregroundBlur_157_977"/>
</filter>
<filter id="filter1_f_157_977" x="15.8945" y="5.15234" width="14.1138" height="17.8813" filterUnits="userSpaceOnUse" color-interpolation-filters="sRGB">
<feFlood flood-opacity="0" result="BackgroundImageFix"/>
<feBlend mode="normal" in="SourceGraphic" in2="BackgroundImageFix" result="shape"/>
<feGaussianBlur stdDeviation="0.75" result="effect1_foregroundBlur_157_977"/>
</filter>
<filter id="filter2_f_157_977" x="5.19238" y="3.81836" width="12.8525" height="19.394" filterUnits="userSpaceOnUse" color-interpolation-filters="sRGB">
<feFlood flood-opacity="0" result="BackgroundImageFix"/>
<feBlend mode="normal" in="SourceGraphic" in2="BackgroundImageFix" result="shape"/>
<feGaussianBlur stdDeviation="1.5" result="effect1_foregroundBlur_157_977"/>
</filter>
<filter id="filter3_f_157_977" x="20.7061" y="5.23584" width="8.29199" height="5.59912" filterUnits="userSpaceOnUse" color-interpolation-filters="sRGB">
<feFlood flood-opacity="0" result="BackgroundImageFix"/>
<feBlend mode="normal" in="SourceGraphic" in2="BackgroundImageFix" result="shape"/>
<feGaussianBlur stdDeviation="0.5" result="effect1_foregroundBlur_157_977"/>
</filter>
<filter id="filter4_f_157_977" x="7.31543" y="5.25586" width="8.64941" height="5.71484" filterUnits="userSpaceOnUse" color-interpolation-filters="sRGB">
<feFlood flood-opacity="0" result="BackgroundImageFix"/>
<feBlend mode="normal" in="SourceGraphic" in2="BackgroundImageFix" result="shape"/>
<feGaussianBlur stdDeviation="0.5" result="effect1_foregroundBlur_157_977"/>
</filter>
<radialGradient id="paint0_radial_157_977" cx="0" cy="0" r="1" gradientUnits="userSpaceOnUse" gradientTransform="translate(15.7696 5.63351) rotate(90) scale(25.0559 26.6012)">
<stop offset="0.204279" stop-color="#31C66A"/>
<stop offset="0.527969" stop-color="#40B98A"/>
<stop offset="1" stop-color="#43A395"/>
</radialGradient>
<radialGradient id="paint1_radial_157_977" cx="0" cy="0" r="1" gradientUnits="userSpaceOnUse" gradientTransform="translate(12.2145 29.6894) rotate(-57.2932) scale(30.305 28.3828)">
<stop offset="0.801342" stop-color="#5BE689" stop-opacity="0"/>
<stop offset="1" stop-color="#5BE689"/>
</radialGradient>
<linearGradient id="paint2_linear_157_977" x1="17.6322" y1="16.133" x2="25.6446" y2="25.6684" gradientUnits="userSpaceOnUse">
<stop offset="0.694491" stop-color="#8590CE" stop-opacity="0"/>
<stop offset="0.933555" stop-color="#8590CE"/>
</linearGradient>
<linearGradient id="paint3_linear_157_977" x1="16.6389" y1="16.5303" x2="7.15197" y2="26.4394" gradientUnits="userSpaceOnUse">
<stop offset="0.694491" stop-color="#8590CE" stop-opacity="0"/>
<stop offset="0.885417" stop-color="#7E8DE2"/>
</linearGradient>
<radialGradient id="paint4_radial_157_977" cx="0" cy="0" r="1" gradientUnits="userSpaceOnUse" gradientTransform="translate(15.8947 6.06438) rotate(90) scale(26.6875 33.0073)">
<stop offset="0.733021" stop-color="#408B91" stop-opacity="0"/>
<stop offset="0.894692" stop-color="#408B91"/>
</radialGradient>
<radialGradient id="paint5_radial_157_977" cx="0" cy="0" r="1" gradientUnits="userSpaceOnUse" gradientTransform="translate(19.9645 13.3769) rotate(137.379) scale(15.9679 23.4343)">
<stop offset="0.615628" stop-color="#408B91" stop-opacity="0"/>
<stop offset="1" stop-color="#408B91"/>
</radialGradient>
<radialGradient id="paint6_radial_157_977" cx="0" cy="0" r="1" gradientUnits="userSpaceOnUse" gradientTransform="translate(19.4645 27.6894) rotate(-126.7) scale(33.6751 34.168)">
<stop offset="0.66943" stop-color="#409157" stop-opacity="0"/>
<stop offset="1" stop-color="#409157"/>
</radialGradient>
<radialGradient id="paint7_radial_157_977" cx="0" cy="0" r="1" gradientUnits="userSpaceOnUse" gradientTransform="translate(15.447 13.8154) rotate(90) scale(17.499 19.705)">
<stop offset="0.764272" stop-color="#8590CE" stop-opacity="0"/>
<stop offset="0.933555" stop-color="#8590CE"/>
</radialGradient>
<radialGradient id="paint8_radial_157_977" cx="0" cy="0" r="1" gradientUnits="userSpaceOnUse" gradientTransform="translate(15.447 13.8154) rotate(90) scale(17.499 17.6425)">
<stop offset="0.864278" stop-color="#ADB6E8" stop-opacity="0"/>
<stop offset="0.933555" stop-color="#ADB6E8"/>
</radialGradient>
<radialGradient id="paint9_radial_157_977" cx="0" cy="0" r="1" gradientUnits="userSpaceOnUse" gradientTransform="translate(27.0562 4.91428) rotate(113.398) scale(15.0883 5.91581)">
<stop stop-color="#48FF90"/>
<stop offset="1" stop-color="#48FF90" stop-opacity="0"/>
</radialGradient>
<radialGradient id="paint10_radial_157_977" cx="0" cy="0" r="1" gradientUnits="userSpaceOnUse" gradientTransform="translate(16.4023 11.8774) rotate(-135.541) scale(9.36958 16.6326)">
<stop stop-color="#80F2AD"/>
<stop offset="1" stop-color="#68EC9C" stop-opacity="0"/>
</radialGradient>
<linearGradient id="paint11_linear_157_977" x1="26.46" y1="8.13095" x2="23.8058" y2="6.79221" gradientUnits="userSpaceOnUse">
<stop stop-color="#48FF90"/>
<stop offset="1" stop-color="#48FF90" stop-opacity="0"/>
</linearGradient>
<linearGradient id="paint12_linear_157_977" x1="13.0693" y1="8.15614" x2="10.4151" y2="6.8174" gradientUnits="userSpaceOnUse">
<stop stop-color="#48FF90"/>
<stop offset="1" stop-color="#48FF90" stop-opacity="0"/>
</linearGradient>
</defs>
</svg>
