<svg width="98" height="159" viewBox="0 0 98 159" fill="none" xmlns="http://www.w3.org/2000/svg">
<circle cx="49" cy="73" r="49" fill="#FB85EA"/>
<path d="M33.16 105.752C32.52 106.328 31.496 106.776 30.088 107.096C28.68 107.48 27.304 107.672 25.96 107.672C23.912 102.36 21.96 96.824 20.104 91.064C18.248 85.24 16.52 79.416 14.92 73.592C13.384 67.704 11.944 61.88 10.6 56.12C9.256 50.36 8.072 44.824 7.048 39.512C8.136 38.936 9.352 38.52 10.696 38.264C12.04 37.944 13.352 37.784 14.632 37.784C15.464 42.392 16.456 47.256 17.608 52.376C18.76 57.496 20.008 62.744 21.352 68.12C22.76 73.432 24.264 78.776 25.864 84.152C27.464 89.464 29.16 94.68 30.952 99.8C32.488 95.896 34.024 91.64 35.56 87.032C37.16 82.36 38.664 77.688 40.072 73.016C41.544 68.28 42.856 63.672 44.008 59.192C45.224 54.712 46.216 50.68 46.984 47.096C48.968 46.008 51.336 45.464 54.088 45.464C56.2 54.808 58.728 64.12 61.672 73.4C64.616 82.68 67.848 91.896 71.368 101.048C73.032 96.248 74.568 91.224 75.976 85.976C77.384 80.664 78.664 75.32 79.816 69.944C81.032 64.568 82.088 59.224 82.984 53.912C83.88 48.6 84.648 43.544 85.288 38.744C86.696 38.104 88.296 37.784 90.088 37.784C91.176 37.784 91.976 37.848 92.488 37.976C91.72 42.584 90.664 47.736 89.32 53.432C88.04 59.064 86.568 64.888 84.904 70.904C83.304 76.92 81.512 82.936 79.528 88.952C77.608 94.904 75.624 100.536 73.576 105.848C72.872 106.36 71.88 106.776 70.6 107.096C69.384 107.48 68.04 107.672 66.568 107.672C64.904 103.832 63.24 99.736 61.576 95.384C59.976 90.968 58.408 86.52 56.872 82.04C55.4 77.56 54.024 73.144 52.744 68.792C51.464 64.44 50.376 60.376 49.48 56.6C48.52 60.376 47.4 64.408 46.12 68.696C44.904 72.92 43.56 77.176 42.088 81.464C40.68 85.752 39.208 89.976 37.672 94.136C36.2 98.296 34.696 102.168 33.16 105.752Z" fill="black"/>
</svg>
