<svg width="32" height="32" viewBox="0 0 32 32" fill="none" xmlns="http://www.w3.org/2000/svg">
<path d="M15.1039 29.2274C15.6388 29.5259 16.2825 29.5094 16.8144 29.2054C20.3974 27.1576 26.6238 22.4438 29.069 16.3207C32.6581 8.34828 24.2309 1.98422 18.4066 6.56148C17.799 7.03895 17.0351 7.58541 16.5094 8.10307C16.2717 8.33712 15.8528 8.36098 15.6061 8.13649C14.915 7.50765 13.8348 6.70099 13.1411 6.23165C8.1757 2.87226 -0.858914 7.30051 2.99493 16.7514C4.40669 20.9936 11.1342 27.0121 15.1039 29.2274Z" fill="url(#paint0_radial_157_956)"/>
<path d="M15.1039 29.2274C15.6388 29.5259 16.2825 29.5094 16.8144 29.2054C20.3974 27.1576 26.6238 22.4438 29.069 16.3207C32.6581 8.34828 24.2309 1.98422 18.4066 6.56148C17.799 7.03895 17.0351 7.58541 16.5094 8.10307C16.2717 8.33712 15.8528 8.36098 15.6061 8.13649C14.915 7.50765 13.8348 6.70099 13.1411 6.23165C8.1757 2.87226 -0.858914 7.30051 2.99493 16.7514C4.40669 20.9936 11.1342 27.0121 15.1039 29.2274Z" fill="url(#paint1_radial_157_956)"/>
<path d="M15.1039 29.2274C15.6388 29.5259 16.2825 29.5094 16.8144 29.2054C20.3974 27.1576 26.6238 22.4438 29.069 16.3207C32.6581 8.34828 24.2309 1.98422 18.4066 6.56148C17.799 7.03895 17.0351 7.58541 16.5094 8.10307C16.2717 8.33712 15.8528 8.36098 15.6061 8.13649C14.915 7.50765 13.8348 6.70099 13.1411 6.23165C8.1757 2.87226 -0.858914 7.30051 2.99493 16.7514C4.40669 20.9936 11.1342 27.0121 15.1039 29.2274Z" fill="url(#paint2_linear_157_956)"/>
<path d="M15.1039 29.2274C15.6388 29.5259 16.2825 29.5094 16.8144 29.2054C20.3974 27.1576 26.6238 22.4438 29.069 16.3207C32.6581 8.34828 24.2309 1.98422 18.4066 6.56148C17.799 7.03895 17.0351 7.58541 16.5094 8.10307C16.2717 8.33712 15.8528 8.36098 15.6061 8.13649C14.915 7.50765 13.8348 6.70099 13.1411 6.23165C8.1757 2.87226 -0.858914 7.30051 2.99493 16.7514C4.40669 20.9936 11.1342 27.0121 15.1039 29.2274Z" fill="url(#paint3_radial_157_956)"/>
<path d="M15.1039 29.2274C15.6388 29.5259 16.2825 29.5094 16.8144 29.2054C20.3974 27.1576 26.6238 22.4438 29.069 16.3207C32.6581 8.34828 24.2309 1.98422 18.4066 6.56148C17.799 7.03895 17.0351 7.58541 16.5094 8.10307C16.2717 8.33712 15.8528 8.36098 15.6061 8.13649C14.915 7.50765 13.8348 6.70099 13.1411 6.23165C8.1757 2.87226 -0.858914 7.30051 2.99493 16.7514C4.40669 20.9936 11.1342 27.0121 15.1039 29.2274Z" fill="url(#paint4_linear_157_956)"/>
<path d="M15.1039 29.2274C15.6388 29.5259 16.2825 29.5094 16.8144 29.2054C20.3974 27.1576 26.6238 22.4438 29.069 16.3207C32.6581 8.34828 24.2309 1.98422 18.4066 6.56148C17.799 7.03895 17.0351 7.58541 16.5094 8.10307C16.2717 8.33712 15.8528 8.36098 15.6061 8.13649C14.915 7.50765 13.8348 6.70099 13.1411 6.23165C8.1757 2.87226 -0.858914 7.30051 2.99493 16.7514C4.40669 20.9936 11.1342 27.0121 15.1039 29.2274Z" fill="url(#paint5_radial_157_956)"/>
<path d="M15.1039 29.2274C15.6388 29.5259 16.2825 29.5094 16.8144 29.2054C20.3974 27.1576 26.6238 22.4438 29.069 16.3207C32.6581 8.34828 24.2309 1.98422 18.4066 6.56148C17.799 7.03895 17.0351 7.58541 16.5094 8.10307C16.2717 8.33712 15.8528 8.36098 15.6061 8.13649C14.915 7.50765 13.8348 6.70099 13.1411 6.23165C8.1757 2.87226 -0.858914 7.30051 2.99493 16.7514C4.40669 20.9936 11.1342 27.0121 15.1039 29.2274Z" fill="url(#paint6_radial_157_956)"/>
<path d="M15.1039 29.2274C15.6388 29.5259 16.2825 29.5094 16.8144 29.2054C20.3974 27.1576 26.6238 22.4438 29.069 16.3207C32.6581 8.34828 24.2309 1.98422 18.4066 6.56148C17.799 7.03895 17.0351 7.58541 16.5094 8.10307C16.2717 8.33712 15.8528 8.36098 15.6061 8.13649C14.915 7.50765 13.8348 6.70099 13.1411 6.23165C8.1757 2.87226 -0.858914 7.30051 2.99493 16.7514C4.40669 20.9936 11.1342 27.0121 15.1039 29.2274Z" fill="url(#paint7_radial_157_956)"/>
<path d="M15.219 7.83189L15.5666 8.1501C16.5206 9.02347 18.0649 8.77988 18.9309 7.81916C19.8445 6.80552 21.0703 5.75575 22.5557 5.02783C21.1519 5.05859 19.7139 5.53477 18.4071 6.56183C18.2563 6.68033 18.0959 6.80308 17.9318 6.92859C17.435 7.30878 16.9051 7.71424 16.5099 8.10343C16.2722 8.33748 15.8533 8.36134 15.6066 8.13685C15.4872 8.02827 15.3563 7.91439 15.2178 7.79786L15.219 7.83189Z" fill="url(#paint8_linear_157_956)"/>
<g filter="url(#filter0_f_157_956)">
<path d="M15.8214 10.2415L16.2001 16.5016C16.2627 17.5363 17.7776 17.8596 18.3153 16.9734C20.6438 13.1361 22.7563 10.5835 20.8125 8.30041C19.992 7.33674 17.8252 7.8581 16.0986 9.50566C15.8998 9.69542 15.8048 9.96715 15.8214 10.2415Z" fill="url(#paint9_radial_157_956)"/>
</g>
<g filter="url(#filter1_f_157_956)">
<ellipse cx="22.9512" cy="14.1191" rx="7.76707" ry="5.08722" transform="rotate(-67.6274 22.9512 14.1191)" fill="url(#paint10_radial_157_956)"/>
</g>
<g filter="url(#filter2_f_157_956)">
<path d="M14.8398 9.20672L15.0448 22.613C8.16984 15.9255 6.93871 8.75983 9.27732 7.15306C10.9473 6.00565 14.0899 7.64422 14.8398 9.20672Z" fill="url(#paint11_radial_157_956)"/>
</g>
<g filter="url(#filter3_f_157_956)">
<path d="M8.44061 6.43946C9.52726 6.30455 12.4645 6.43945 14.8396 9.87219" stroke="url(#paint12_linear_157_956)" stroke-width="0.25" stroke-linecap="round"/>
</g>
<g filter="url(#filter4_f_157_956)">
<path d="M3.625 13.5508C5.6875 21.6133 13.1042 26.7799 15.625 28.3633C12.725 23.1133 10.0625 12.8216 10 10.4883L3.625 13.5508Z" fill="url(#paint13_linear_157_956)"/>
</g>
<defs>
<filter id="filter0_f_157_956" x="13.8193" y="5.81836" width="9.75635" height="13.6699" filterUnits="userSpaceOnUse" color-interpolation-filters="sRGB">
<feFlood flood-opacity="0" result="BackgroundImageFix"/>
<feBlend mode="normal" in="SourceGraphic" in2="BackgroundImageFix" result="shape"/>
<feGaussianBlur stdDeviation="1" result="effect1_foregroundBlur_157_956"/>
</filter>
<filter id="filter1_f_157_956" x="15.8945" y="5.17822" width="14.1133" height="17.8818" filterUnits="userSpaceOnUse" color-interpolation-filters="sRGB">
<feFlood flood-opacity="0" result="BackgroundImageFix"/>
<feBlend mode="normal" in="SourceGraphic" in2="BackgroundImageFix" result="shape"/>
<feGaussianBlur stdDeviation="0.75" result="effect1_foregroundBlur_157_956"/>
</filter>
<filter id="filter2_f_157_956" x="5.19238" y="3.76855" width="12.8525" height="21.8442" filterUnits="userSpaceOnUse" color-interpolation-filters="sRGB">
<feFlood flood-opacity="0" result="BackgroundImageFix"/>
<feBlend mode="normal" in="SourceGraphic" in2="BackgroundImageFix" result="shape"/>
<feGaussianBlur stdDeviation="1.5" result="effect1_foregroundBlur_157_956"/>
</filter>
<filter id="filter3_f_157_956" x="7.31543" y="5.28223" width="8.64941" height="5.71484" filterUnits="userSpaceOnUse" color-interpolation-filters="sRGB">
<feFlood flood-opacity="0" result="BackgroundImageFix"/>
<feBlend mode="normal" in="SourceGraphic" in2="BackgroundImageFix" result="shape"/>
<feGaussianBlur stdDeviation="0.5" result="effect1_foregroundBlur_157_956"/>
</filter>
<filter id="filter4_f_157_956" x="1.625" y="8.48828" width="16" height="21.875" filterUnits="userSpaceOnUse" color-interpolation-filters="sRGB">
<feFlood flood-opacity="0" result="BackgroundImageFix"/>
<feBlend mode="normal" in="SourceGraphic" in2="BackgroundImageFix" result="shape"/>
<feGaussianBlur stdDeviation="1" result="effect1_foregroundBlur_157_956"/>
</filter>
<radialGradient id="paint0_radial_157_956" cx="0" cy="0" r="1" gradientUnits="userSpaceOnUse" gradientTransform="translate(15.7696 5.65938) rotate(90) scale(23.8283 29.4623)">
<stop offset="0.255208" stop-color="#AC3BFF"/>
<stop offset="0.527969" stop-color="#9D32FF"/>
<stop offset="1" stop-color="#8C1EED"/>
</radialGradient>
<radialGradient id="paint1_radial_157_956" cx="0" cy="0" r="1" gradientUnits="userSpaceOnUse" gradientTransform="translate(12.2145 29.7153) rotate(-57.2932) scale(30.305 28.3828)">
<stop offset="0.801342" stop-color="#B350FF" stop-opacity="0"/>
<stop offset="1" stop-color="#B350FF"/>
</radialGradient>
<linearGradient id="paint2_linear_157_956" x1="17.6322" y1="16.1589" x2="25.6446" y2="25.6943" gradientUnits="userSpaceOnUse">
<stop offset="0.694491" stop-color="#B694FF" stop-opacity="0"/>
<stop offset="0.933555" stop-color="#9F72FF"/>
</linearGradient>
<radialGradient id="paint3_radial_157_956" cx="0" cy="0" r="1" gradientUnits="userSpaceOnUse" gradientTransform="translate(22.4998 11.4877) rotate(140.774) scale(19.7667 28.2971)">
<stop offset="0.751911" stop-color="#6721FD" stop-opacity="0"/>
<stop offset="1" stop-color="#7F21FD"/>
</radialGradient>
<linearGradient id="paint4_linear_157_956" x1="16.6389" y1="16.5562" x2="7.18728" y2="27.2064" gradientUnits="userSpaceOnUse">
<stop offset="0.694491" stop-color="#9F72FF" stop-opacity="0"/>
<stop offset="0.885417" stop-color="#B694FF"/>
</linearGradient>
<radialGradient id="paint5_radial_157_956" cx="0" cy="0" r="1" gradientUnits="userSpaceOnUse" gradientTransform="translate(21.9998 14.9877) rotate(-154.781) scale(21.4163 18.6261)">
<stop offset="0.715518" stop-color="#773CAC" stop-opacity="0"/>
<stop offset="1" stop-color="#773CAC"/>
</radialGradient>
<radialGradient id="paint6_radial_157_956" cx="0" cy="0" r="1" gradientUnits="userSpaceOnUse" gradientTransform="translate(17.1248 17.9877) rotate(-129.075) scale(18.839 27.0981)">
<stop offset="0.663027" stop-color="#773CAC" stop-opacity="0"/>
<stop offset="1" stop-color="#773CAC"/>
</radialGradient>
<radialGradient id="paint7_radial_157_956" cx="0" cy="0" r="1" gradientUnits="userSpaceOnUse" gradientTransform="translate(15.447 13.8413) rotate(90) scale(17.499 20.0528)">
<stop offset="0.820913" stop-color="#9F72FF" stop-opacity="0"/>
<stop offset="0.933555" stop-color="#B694FF"/>
</radialGradient>
<linearGradient id="paint8_linear_157_956" x1="17.1252" y1="7.44549" x2="18.8867" y2="8.86314" gradientUnits="userSpaceOnUse">
<stop stop-color="#7241AD"/>
<stop offset="0.679707" stop-color="#7241AD" stop-opacity="0"/>
</linearGradient>
<radialGradient id="paint9_radial_157_956" cx="0" cy="0" r="1" gradientUnits="userSpaceOnUse" gradientTransform="translate(22.125 6.23791) rotate(107.322) scale(13.2248 14.8114)">
<stop offset="0.567708" stop-color="#8E26E9"/>
<stop offset="1" stop-color="#6721FD" stop-opacity="0"/>
</radialGradient>
<radialGradient id="paint10_radial_157_956" cx="0" cy="0" r="1" gradientUnits="userSpaceOnUse" gradientTransform="translate(32.8355 15.3752) rotate(-173.542) scale(15.5528 7.3671)">
<stop stop-color="#D28CFF"/>
<stop offset="1" stop-color="#C874FF" stop-opacity="0"/>
</radialGradient>
<radialGradient id="paint11_radial_157_956" cx="0" cy="0" r="1" gradientUnits="userSpaceOnUse" gradientTransform="translate(16.6251 14.6908) rotate(-134.829) scale(11.1704 7.39051)">
<stop stop-color="#D28CFF"/>
<stop offset="1" stop-color="#C874FF" stop-opacity="0"/>
</radialGradient>
<linearGradient id="paint12_linear_157_956" x1="7.06235" y1="6.34766" x2="13.5623" y2="6.98836" gradientUnits="userSpaceOnUse">
<stop stop-color="#C274FF"/>
<stop offset="1" stop-color="#B659FF" stop-opacity="0"/>
</linearGradient>
<linearGradient id="paint13_linear_157_956" x1="18.5625" y1="30.4258" x2="10.5625" y2="16.6758" gradientUnits="userSpaceOnUse">
<stop stop-color="#7C22FD"/>
<stop offset="1" stop-color="#7C22FD" stop-opacity="0"/>
</linearGradient>
</defs>
</svg>
