<svg width="26" height="26" viewBox="0 0 26 26" fill="none" xmlns="http://www.w3.org/2000/svg">
<circle cx="12.7466" cy="22.3003" r="2.03125" fill="url(#paint0_linear_157_1013)"/>
<circle cx="12.7466" cy="22.3003" r="2.03125" fill="url(#paint1_radial_157_1013)"/>
<circle cx="12.7466" cy="22.3003" r="2.03125" fill="url(#paint2_radial_157_1013)"/>
<path fill-rule="evenodd" clip-rule="evenodd" d="M12.5228 5.78996C11.7543 5.97308 11.3451 6.32216 11.1123 6.64317C10.8527 7.00108 10.7407 7.42708 10.7407 7.7864C10.7407 8.90823 9.83129 9.81765 8.70946 9.81764C7.58763 9.81763 6.67822 8.90821 6.67822 7.78638C6.67824 5.51708 8.07192 2.63535 11.6615 1.81939C11.6881 1.81336 11.7147 1.80786 11.7414 1.80291C14.0876 1.36786 16.1372 2.01041 17.5758 3.41463C18.9587 4.76455 19.6148 6.65604 19.6148 8.49745C19.6148 10.3275 19.0888 11.8223 17.8944 13.0908C17.0722 13.9639 15.9814 14.6691 14.7652 15.3347V16.9525C14.7652 18.0744 13.8558 18.9838 12.7339 18.9838C11.6121 18.9838 10.7027 18.0744 10.7027 16.9525V14.1088C10.7027 13.346 11.13 12.6475 11.8091 12.3003C13.5055 11.4328 14.4148 10.8601 14.9367 10.3058C15.3293 9.88887 15.5523 9.43501 15.5523 8.49745C15.5523 7.57129 15.2182 6.79042 14.738 6.32171C14.3186 5.91224 13.6435 5.59266 12.5228 5.78996Z" fill="#8B7AB4"/>
<g filter="url(#filter0_f_157_1013)">
<path d="M9.1665 7.60807C9.16651 6.12276 10.0552 4.19315 12.5688 3.62179C16.0601 2.9744 18.0406 5.55155 18.0406 8.31913C18.0406 11.0867 16.5425 12.2166 13.191 13.9305V16.1271" stroke="url(#paint3_linear_157_1013)" stroke-width="2" stroke-linecap="round" stroke-linejoin="round"/>
<path d="M9.1665 7.60807C9.16651 6.12276 10.0552 4.19315 12.5688 3.62179C16.0601 2.9744 18.0406 5.55155 18.0406 8.31913C18.0406 11.0867 16.5425 12.2166 13.191 13.9305V16.1271" stroke="url(#paint4_linear_157_1013)" stroke-width="2" stroke-linecap="round" stroke-linejoin="round"/>
</g>
<defs>
<filter id="filter0_f_157_1013" x="6.6665" y="1.021" width="13.874" height="17.606" filterUnits="userSpaceOnUse" color-interpolation-filters="sRGB">
<feFlood flood-opacity="0" result="BackgroundImageFix"/>
<feBlend mode="normal" in="SourceGraphic" in2="BackgroundImageFix" result="shape"/>
<feGaussianBlur stdDeviation="0.75" result="effect1_foregroundBlur_157_1013"/>
</filter>
<linearGradient id="paint0_linear_157_1013" x1="12.7466" y1="21.2561" x2="12.7466" y2="24.3315" gradientUnits="userSpaceOnUse">
<stop stop-color="#9482BF"/>
<stop offset="1" stop-color="#9482BF"/>
</linearGradient>
<radialGradient id="paint1_radial_157_1013" cx="0" cy="0" r="1" gradientUnits="userSpaceOnUse" gradientTransform="translate(13.5337 22.0178) rotate(-48.8141) scale(1.88934 1.66111)">
<stop offset="0.233965" stop-color="#9482BF"/>
<stop offset="1" stop-color="#9482BF" stop-opacity="0"/>
</radialGradient>
<radialGradient id="paint2_radial_157_1013" cx="0" cy="0" r="1" gradientUnits="userSpaceOnUse" gradientTransform="translate(10.7153 20.7483) rotate(25.9892) scale(2.25977 6.11861)">
<stop stop-color="#9482BF"/>
<stop offset="1" stop-color="#9482BF" stop-opacity="0"/>
</radialGradient>
<linearGradient id="paint3_linear_157_1013" x1="18.3199" y1="5.86928" x2="14.5113" y2="9.01772" gradientUnits="userSpaceOnUse">
<stop offset="0.103073" stop-color="#9482BF"/>
<stop offset="1" stop-color="#9482BF" stop-opacity="0"/>
</linearGradient>
<linearGradient id="paint4_linear_157_1013" x1="15.3238" y1="17.4474" x2="18.0406" y2="11.1505" gradientUnits="userSpaceOnUse">
<stop stop-color="#9482BF"/>
<stop offset="1" stop-color="#9482BF" stop-opacity="0"/>
</linearGradient>
</defs>
</svg>
