<svg width="24" height="24" viewBox="0 0 24 24" fill="none" xmlns="http://www.w3.org/2000/svg">
<g clip-path="url(#clip0_157_1301)">
<path d="M7.936 10.2884C8.83638 9.95699 9.7118 10.8324 9.38036 11.7328L7.41626 17.0686C7.22716 17.5823 6.5692 17.7269 6.1821 17.3398L2.32898 13.4867C1.94189 13.0996 2.08649 12.4416 2.60023 12.2525L7.936 10.2884Z" fill="url(#paint0_linear_157_1301)"/>
<path d="M7.936 10.2884C8.83638 9.95699 9.7118 10.8324 9.38036 11.7328L7.41626 17.0686C7.22716 17.5823 6.5692 17.7269 6.1821 17.3398L2.32898 13.4867C1.94189 13.0996 2.08649 12.4416 2.60023 12.2525L7.936 10.2884Z" fill="url(#paint1_radial_157_1301)"/>
<path d="M7.936 10.2884C8.83638 9.95699 9.7118 10.8324 9.38036 11.7328L7.41626 17.0686C7.22716 17.5823 6.5692 17.7269 6.1821 17.3398L2.32898 13.4867C1.94189 13.0996 2.08649 12.4416 2.60023 12.2525L7.936 10.2884Z" fill="url(#paint2_linear_157_1301)"/>
<path d="M12.436 14.7884C13.3364 14.457 14.2118 15.3324 13.8804 16.2328L11.9163 21.5686C11.7272 22.0823 11.0692 22.2269 10.6821 21.8398L6.82898 17.9867C6.44189 17.5996 6.5865 16.9416 7.10023 16.7525L12.436 14.7884Z" fill="url(#paint3_linear_157_1301)"/>
<path d="M12.436 14.7884C13.3364 14.457 14.2118 15.3324 13.8804 16.2328L11.9163 21.5686C11.7272 22.0823 11.0692 22.2269 10.6821 21.8398L6.82898 17.9867C6.44189 17.5996 6.5865 16.9416 7.10023 16.7525L12.436 14.7884Z" fill="url(#paint4_radial_157_1301)"/>
<path d="M12.436 14.7884C13.3364 14.457 14.2118 15.3324 13.8804 16.2328L11.9163 21.5686C11.7272 22.0823 11.0692 22.2269 10.6821 21.8398L6.82898 17.9867C6.44189 17.5996 6.5865 16.9416 7.10023 16.7525L12.436 14.7884Z" fill="url(#paint5_radial_157_1301)"/>
<g filter="url(#filter0_i_157_1301)">
<path d="M16.7761 2.67258C16.832 2.64979 16.896 2.66306 16.9385 2.70594L21.3179 7.1184C21.3602 7.16101 21.3732 7.22456 21.3505 7.28015C20.2942 9.86806 18.8397 12.6176 16.894 14.5633C14.9936 16.4637 11.7793 18.0833 8.87706 19.2744L4.7583 15.1556C5.94932 12.2533 7.569 9.03904 9.46933 7.1387C11.421 5.18707 14.1813 3.72964 16.7761 2.67258Z" fill="url(#paint6_linear_157_1301)"/>
<path d="M16.7761 2.67258C16.832 2.64979 16.896 2.66306 16.9385 2.70594L21.3179 7.1184C21.3602 7.16101 21.3732 7.22456 21.3505 7.28015C20.2942 9.86806 18.8397 12.6176 16.894 14.5633C14.9936 16.4637 11.7793 18.0833 8.87706 19.2744L4.7583 15.1556C5.94932 12.2533 7.569 9.03904 9.46933 7.1387C11.421 5.18707 14.1813 3.72964 16.7761 2.67258Z" fill="url(#paint7_radial_157_1301)"/>
<path d="M16.7761 2.67258C16.832 2.64979 16.896 2.66306 16.9385 2.70594L21.3179 7.1184C21.3602 7.16101 21.3732 7.22456 21.3505 7.28015C20.2942 9.86806 18.8397 12.6176 16.894 14.5633C14.9936 16.4637 11.7793 18.0833 8.87706 19.2744L4.7583 15.1556C5.94932 12.2533 7.569 9.03904 9.46933 7.1387C11.421 5.18707 14.1813 3.72964 16.7761 2.67258Z" fill="url(#paint8_radial_157_1301)"/>
<path d="M16.7761 2.67258C16.832 2.64979 16.896 2.66306 16.9385 2.70594L21.3179 7.1184C21.3602 7.16101 21.3732 7.22456 21.3505 7.28015C20.2942 9.86806 18.8397 12.6176 16.894 14.5633C14.9936 16.4637 11.7793 18.0833 8.87706 19.2744L4.7583 15.1556C5.94932 12.2533 7.569 9.03904 9.46933 7.1387C11.421 5.18707 14.1813 3.72964 16.7761 2.67258Z" fill="url(#paint9_radial_157_1301)"/>
<path d="M16.7761 2.67258C16.832 2.64979 16.896 2.66306 16.9385 2.70594L21.3179 7.1184C21.3602 7.16101 21.3732 7.22456 21.3505 7.28015C20.2942 9.86806 18.8397 12.6176 16.894 14.5633C14.9936 16.4637 11.7793 18.0833 8.87706 19.2744L4.7583 15.1556C5.94932 12.2533 7.569 9.03904 9.46933 7.1387C11.421 5.18707 14.1813 3.72964 16.7761 2.67258Z" fill="url(#paint10_radial_157_1301)"/>
</g>
<g filter="url(#filter1_dii_157_1301)">
<path d="M18.375 8.29678C18.375 9.68828 17.247 10.8163 15.8555 10.8163C14.464 10.8163 13.3359 9.68828 13.3359 8.29678C13.3359 6.90528 14.464 5.77725 15.8555 5.77725C17.247 5.77725 18.375 6.90528 18.375 8.29678Z" fill="url(#paint11_linear_157_1301)"/>
<path d="M18.375 8.29678C18.375 9.68828 17.247 10.8163 15.8555 10.8163C14.464 10.8163 13.3359 9.68828 13.3359 8.29678C13.3359 6.90528 14.464 5.77725 15.8555 5.77725C17.247 5.77725 18.375 6.90528 18.375 8.29678Z" fill="url(#paint12_radial_157_1301)"/>
</g>
<path d="M17.5999 8.29681C17.5999 9.26016 16.819 10.0411 15.8556 10.0411C14.8923 10.0411 14.1113 9.26016 14.1113 8.29681C14.1113 7.33347 14.8923 6.55252 15.8556 6.55252C16.819 6.55252 17.5999 7.33347 17.5999 8.29681Z" fill="url(#paint13_radial_157_1301)"/>
<g filter="url(#filter2_i_157_1301)">
<path d="M1.81767 22.1495C1.28734 21.6191 1.5001 17.9413 3.37509 17.1913C3.37509 17.1913 5.25009 16.4413 6.45834 17.6417C7.6666 18.8421 7.12508 20.1913 7.12508 20.1913C6.59477 21.7823 4.33701 22.4147 4.07185 22.1495C3.92541 22.0031 4.18912 21.7365 4.07186 21.6192C3.9546 21.5019 3.77354 21.6358 3.27636 21.8844C2.92281 22.0611 2.02981 22.3616 1.81767 22.1495Z" fill="url(#paint14_radial_157_1301)"/>
<path d="M1.81767 22.1495C1.28734 21.6191 1.5001 17.9413 3.37509 17.1913C3.37509 17.1913 5.25009 16.4413 6.45834 17.6417C7.6666 18.8421 7.12508 20.1913 7.12508 20.1913C6.59477 21.7823 4.33701 22.4147 4.07185 22.1495C3.92541 22.0031 4.18912 21.7365 4.07186 21.6192C3.9546 21.5019 3.77354 21.6358 3.27636 21.8844C2.92281 22.0611 2.02981 22.3616 1.81767 22.1495Z" fill="url(#paint15_radial_157_1301)"/>
</g>
<path d="M4.54533 15.7368C4.98467 15.2975 5.69698 15.2975 6.13632 15.7368L8.78797 18.3885C9.22731 18.8278 9.22731 19.5401 8.78797 19.9795C8.34863 20.4188 7.63632 20.4188 7.19698 19.9795L4.54533 17.3278C4.10599 16.8885 4.10599 16.1761 4.54533 15.7368Z" fill="url(#paint16_linear_157_1301)"/>
<path d="M4.54533 15.7368C4.98467 15.2975 5.69698 15.2975 6.13632 15.7368L8.78797 18.3885C9.22731 18.8278 9.22731 19.5401 8.78797 19.9795C8.34863 20.4188 7.63632 20.4188 7.19698 19.9795L4.54533 17.3278C4.10599 16.8885 4.10599 16.1761 4.54533 15.7368Z" fill="url(#paint17_radial_157_1301)"/>
<path d="M4.54533 15.7368C4.98467 15.2975 5.69698 15.2975 6.13632 15.7368L8.78797 18.3885C9.22731 18.8278 9.22731 19.5401 8.78797 19.9795C8.34863 20.4188 7.63632 20.4188 7.19698 19.9795L4.54533 17.3278C4.10599 16.8885 4.10599 16.1761 4.54533 15.7368Z" fill="url(#paint18_radial_157_1301)"/>
<path d="M21.8794 2.15362C21.169 1.4433 19.9234 1.52371 19.0156 1.83543C18.3746 2.05551 17.7016 2.30192 17.0148 2.57641C16.9484 2.60294 16.9308 2.6886 16.9812 2.73933L21.2847 7.0724C21.3353 7.12332 21.4214 7.10597 21.4481 7.03935C21.726 6.34517 21.9752 5.6649 22.1975 5.01741C22.5051 4.12177 22.7524 3.02671 21.8794 2.15362Z" fill="url(#paint19_linear_157_1301)"/>
<path d="M21.8794 2.15362C21.169 1.4433 19.9234 1.52371 19.0156 1.83543C18.3746 2.05551 17.7016 2.30192 17.0148 2.57641C16.9484 2.60294 16.9308 2.6886 16.9812 2.73933L21.2847 7.0724C21.3353 7.12332 21.4214 7.10597 21.4481 7.03935C21.726 6.34517 21.9752 5.6649 22.1975 5.01741C22.5051 4.12177 22.7524 3.02671 21.8794 2.15362Z" fill="url(#paint20_radial_157_1301)"/>
<path d="M21.8794 2.15362C21.169 1.4433 19.9234 1.52371 19.0156 1.83543C18.3746 2.05551 17.7016 2.30192 17.0148 2.57641C16.9484 2.60294 16.9308 2.6886 16.9812 2.73933L21.2847 7.0724C21.3353 7.12332 21.4214 7.10597 21.4481 7.03935C21.726 6.34517 21.9752 5.6649 22.1975 5.01741C22.5051 4.12177 22.7524 3.02671 21.8794 2.15362Z" fill="url(#paint21_linear_157_1301)"/>
<path d="M10.186 12.5384C11.0864 12.207 11.9618 13.0824 11.6304 13.9828L9.66626 19.3186C9.47716 19.8323 8.8192 19.9769 8.4321 19.5898L4.57898 15.7367C4.19189 15.3496 4.33649 14.6916 4.85023 14.5025L10.186 12.5384Z" fill="url(#paint22_linear_157_1301)"/>
<path d="M10.186 12.5384C11.0864 12.207 11.9618 13.0824 11.6304 13.9828L9.66626 19.3186C9.47716 19.8323 8.8192 19.9769 8.4321 19.5898L4.57898 15.7367C4.19189 15.3496 4.33649 14.6916 4.85023 14.5025L10.186 12.5384Z" fill="url(#paint23_radial_157_1301)"/>
<path d="M10.186 12.5384C11.0864 12.207 11.9618 13.0824 11.6304 13.9828L9.66626 19.3186C9.47716 19.8323 8.8192 19.9769 8.4321 19.5898L4.57898 15.7367C4.19189 15.3496 4.33649 14.6916 4.85023 14.5025L10.186 12.5384Z" fill="url(#paint24_radial_157_1301)"/>
<path d="M10.186 12.5384C11.0864 12.207 11.9618 13.0824 11.6304 13.9828L9.66626 19.3186C9.47716 19.8323 8.8192 19.9769 8.4321 19.5898L4.57898 15.7367C4.19189 15.3496 4.33649 14.6916 4.85023 14.5025L10.186 12.5384Z" fill="url(#paint25_radial_157_1301)"/>
<g filter="url(#filter3_f_157_1301)">
<path d="M6.90332 16.5351L11.1221 13.2304L8.40332 18.0585L6.90332 16.5351Z" fill="url(#paint26_linear_157_1301)"/>
</g>
</g>
<defs>
<filter id="filter0_i_157_1301" x="4.5083" y="2.16157" width="16.853" height="17.1128" filterUnits="userSpaceOnUse" color-interpolation-filters="sRGB">
<feFlood flood-opacity="0" result="BackgroundImageFix"/>
<feBlend mode="normal" in="SourceGraphic" in2="BackgroundImageFix" result="shape"/>
<feColorMatrix in="SourceAlpha" type="matrix" values="0 0 0 0 0 0 0 0 0 0 0 0 0 0 0 0 0 0 127 0" result="hardAlpha"/>
<feOffset dx="-0.25" dy="-0.5"/>
<feGaussianBlur stdDeviation="0.75"/>
<feComposite in2="hardAlpha" operator="arithmetic" k2="-1" k3="1"/>
<feColorMatrix type="matrix" values="0 0 0 0 0.745098 0 0 0 0 0.772549 0 0 0 0 0.952941 0 0 0 1 0"/>
<feBlend mode="normal" in2="shape" result="effect1_innerShadow_157_1301"/>
</filter>
<filter id="filter1_dii_157_1301" x="12.3359" y="5.02725" width="7.03906" height="7.03906" filterUnits="userSpaceOnUse" color-interpolation-filters="sRGB">
<feFlood flood-opacity="0" result="BackgroundImageFix"/>
<feColorMatrix in="SourceAlpha" type="matrix" values="0 0 0 0 0 0 0 0 0 0 0 0 0 0 0 0 0 0 127 0" result="hardAlpha"/>
<feOffset dy="0.25"/>
<feGaussianBlur stdDeviation="0.5"/>
<feComposite in2="hardAlpha" operator="out"/>
<feColorMatrix type="matrix" values="0 0 0 0 0.866667 0 0 0 0 0.764706 0 0 0 0 0.847059 0 0 0 1 0"/>
<feBlend mode="normal" in2="BackgroundImageFix" result="effect1_dropShadow_157_1301"/>
<feBlend mode="normal" in="SourceGraphic" in2="effect1_dropShadow_157_1301" result="shape"/>
<feColorMatrix in="SourceAlpha" type="matrix" values="0 0 0 0 0 0 0 0 0 0 0 0 0 0 0 0 0 0 127 0" result="hardAlpha"/>
<feOffset dx="-0.1" dy="0.1"/>
<feGaussianBlur stdDeviation="0.05"/>
<feComposite in2="hardAlpha" operator="arithmetic" k2="-1" k3="1"/>
<feColorMatrix type="matrix" values="0 0 0 0 0.721569 0 0 0 0 0.690196 0 0 0 0 0.701961 0 0 0 1 0"/>
<feBlend mode="normal" in2="shape" result="effect2_innerShadow_157_1301"/>
<feColorMatrix in="SourceAlpha" type="matrix" values="0 0 0 0 0 0 0 0 0 0 0 0 0 0 0 0 0 0 127 0" result="hardAlpha"/>
<feOffset dx="0.1" dy="-0.1"/>
<feGaussianBlur stdDeviation="0.05"/>
<feComposite in2="hardAlpha" operator="arithmetic" k2="-1" k3="1"/>
<feColorMatrix type="matrix" values="0 0 0 0 0.615686 0 0 0 0 0.560784 0 0 0 0 0.65098 0 0 0 1 0"/>
<feBlend mode="normal" in2="effect2_innerShadow_157_1301" result="effect3_innerShadow_157_1301"/>
</filter>
<filter id="filter2_i_157_1301" x="1.56592" y="16.7599" width="5.68018" height="5.46254" filterUnits="userSpaceOnUse" color-interpolation-filters="sRGB">
<feFlood flood-opacity="0" result="BackgroundImageFix"/>
<feBlend mode="normal" in="SourceGraphic" in2="BackgroundImageFix" result="shape"/>
<feColorMatrix in="SourceAlpha" type="matrix" values="0 0 0 0 0 0 0 0 0 0 0 0 0 0 0 0 0 0 127 0" result="hardAlpha"/>
<feOffset dy="-0.2"/>
<feGaussianBlur stdDeviation="0.2"/>
<feComposite in2="hardAlpha" operator="arithmetic" k2="-1" k3="1"/>
<feColorMatrix type="matrix" values="0 0 0 0 0.847059 0 0 0 0 0.505882 0 0 0 0 0.360784 0 0 0 1 0"/>
<feBlend mode="normal" in2="shape" result="effect1_innerShadow_157_1301"/>
</filter>
<filter id="filter3_f_157_1301" x="5.90332" y="12.2304" width="6.21875" height="6.82812" filterUnits="userSpaceOnUse" color-interpolation-filters="sRGB">
<feFlood flood-opacity="0" result="BackgroundImageFix"/>
<feBlend mode="normal" in="SourceGraphic" in2="BackgroundImageFix" result="shape"/>
<feGaussianBlur stdDeviation="0.5" result="effect1_foregroundBlur_157_1301"/>
</filter>
<linearGradient id="paint0_linear_157_1301" x1="6.08304" y1="12.981" x2="2.33304" y2="12.3632" gradientUnits="userSpaceOnUse">
<stop stop-color="#EE2452"/>
<stop offset="1" stop-color="#F63E7A"/>
</linearGradient>
<radialGradient id="paint1_radial_157_1301" cx="0" cy="0" r="1" gradientUnits="userSpaceOnUse" gradientTransform="translate(1.79803 12.7974) rotate(-19.9576) scale(6.00126 1.02033)">
<stop offset="0.163866" stop-color="#FF8DB0"/>
<stop offset="1" stop-color="#FF8DB0" stop-opacity="0"/>
</radialGradient>
<linearGradient id="paint2_linear_157_1301" x1="3.67843" y1="14.7999" x2="4.28989" y2="14.2037" gradientUnits="userSpaceOnUse">
<stop offset="0.491189" stop-color="#DD467C"/>
<stop offset="1" stop-color="#DD467C" stop-opacity="0"/>
</linearGradient>
<linearGradient id="paint3_linear_157_1301" x1="13.419" y1="16.2538" x2="8.75554" y2="19.9132" gradientUnits="userSpaceOnUse">
<stop stop-color="#F83267"/>
<stop offset="1" stop-color="#FF3190"/>
</linearGradient>
<radialGradient id="paint4_radial_157_1301" cx="0" cy="0" r="1" gradientUnits="userSpaceOnUse" gradientTransform="translate(10.9346 16.6523) rotate(86.482) scale(5.7293 4.93954)">
<stop offset="0.756562" stop-color="#E76CBE" stop-opacity="0"/>
<stop offset="0.951296" stop-color="#E76CBE"/>
</radialGradient>
<radialGradient id="paint5_radial_157_1301" cx="0" cy="0" r="1" gradientUnits="userSpaceOnUse" gradientTransform="translate(10.0909 19.6757) rotate(-57.3464) scale(3.95289 1.7363)">
<stop stop-color="#FF5898"/>
<stop offset="1" stop-color="#FF5898" stop-opacity="0"/>
</radialGradient>
<linearGradient id="paint6_linear_157_1301" x1="10.1143" y1="6.50378" x2="16.7236" y2="13.16" gradientUnits="userSpaceOnUse">
<stop stop-color="#CCBBC0"/>
<stop offset="1" stop-color="#EAD2EC"/>
</linearGradient>
<radialGradient id="paint7_radial_157_1301" cx="0" cy="0" r="1" gradientUnits="userSpaceOnUse" gradientTransform="translate(17.9769 16.1828) rotate(-142.447) scale(12.5077 23.5112)">
<stop offset="0.811143" stop-color="#E7E5E5" stop-opacity="0"/>
<stop offset="1" stop-color="#E7E5E5"/>
</radialGradient>
<radialGradient id="paint8_radial_157_1301" cx="0" cy="0" r="1" gradientUnits="userSpaceOnUse" gradientTransform="translate(6.88586 15.9822) rotate(-56.9293) scale(7.35286 3.45578)">
<stop offset="0.281006" stop-color="#B5A3A5"/>
<stop offset="1" stop-color="#B5A3A5" stop-opacity="0"/>
</radialGradient>
<radialGradient id="paint9_radial_157_1301" cx="0" cy="0" r="1" gradientUnits="userSpaceOnUse" gradientTransform="translate(4.7583 15.0683) rotate(-73.625) scale(6.51839 1.10453)">
<stop offset="0.207885" stop-color="#B28F96"/>
<stop offset="1" stop-color="#B28F96" stop-opacity="0"/>
</radialGradient>
<radialGradient id="paint10_radial_157_1301" cx="0" cy="0" r="1" gradientUnits="userSpaceOnUse" gradientTransform="translate(20.333 5.3319) rotate(137.284) scale(9.88128 3.06801)">
<stop stop-color="#FAECF1"/>
<stop offset="1" stop-color="#FAECF1" stop-opacity="0"/>
</radialGradient>
<linearGradient id="paint11_linear_157_1301" x1="13.3359" y1="7.86847" x2="18.375" y2="8.29678" gradientUnits="userSpaceOnUse">
<stop stop-color="#A796A0"/>
<stop offset="1" stop-color="#A5959F"/>
</linearGradient>
<radialGradient id="paint12_radial_157_1301" cx="0" cy="0" r="1" gradientUnits="userSpaceOnUse" gradientTransform="translate(15.8555 8.29678) rotate(90) scale(2.51953)">
<stop offset="0.586538" stop-color="#93859B"/>
<stop offset="1" stop-color="#93859B" stop-opacity="0"/>
</radialGradient>
<radialGradient id="paint13_radial_157_1301" cx="0" cy="0" r="1" gradientUnits="userSpaceOnUse" gradientTransform="translate(15.8556 10.0411) rotate(-90) scale(3.63419 3.34219)">
<stop stop-color="#72CDFF"/>
<stop offset="0.738019" stop-color="#66ACFF"/>
<stop offset="1" stop-color="#3B57F4"/>
</radialGradient>
<radialGradient id="paint14_radial_157_1301" cx="0" cy="0" r="1" gradientUnits="userSpaceOnUse" gradientTransform="translate(6.14344 18.1843) rotate(135) scale(4.35484 3.42301)">
<stop stop-color="#D46213"/>
<stop offset="1" stop-color="#FF9542"/>
</radialGradient>
<radialGradient id="paint15_radial_157_1301" cx="0" cy="0" r="1" gradientUnits="userSpaceOnUse" gradientTransform="translate(6.2278 21.7277) rotate(-131.186) scale(5.3809 5.67057)">
<stop offset="0.870944" stop-color="#FFC484" stop-opacity="0"/>
<stop offset="1" stop-color="#FFC484"/>
</radialGradient>
<linearGradient id="paint16_linear_157_1301" x1="4.34863" y1="16.4648" x2="8.47363" y2="20.5194" gradientUnits="userSpaceOnUse">
<stop stop-color="#452860"/>
<stop offset="1" stop-color="#51509F"/>
</linearGradient>
<radialGradient id="paint17_radial_157_1301" cx="0" cy="0" r="1" gradientUnits="userSpaceOnUse" gradientTransform="translate(5.12207 16.0898) rotate(77.8285) scale(1.2228 1.08038)">
<stop stop-color="#8E839A"/>
<stop offset="1" stop-color="#8E839A" stop-opacity="0"/>
</radialGradient>
<radialGradient id="paint18_radial_157_1301" cx="0" cy="0" r="1" gradientUnits="userSpaceOnUse" gradientTransform="translate(5.40499 16.8134) rotate(47.9357) scale(4.65923 2.44228)">
<stop offset="0.860492" stop-color="#6175B9" stop-opacity="0"/>
<stop offset="1" stop-color="#6175B9"/>
</radialGradient>
<linearGradient id="paint19_linear_157_1301" x1="21.8826" y1="2.1569" x2="19.1256" y2="4.91397" gradientUnits="userSpaceOnUse">
<stop stop-color="#FF3745"/>
<stop offset="1" stop-color="#ED224B"/>
</linearGradient>
<radialGradient id="paint20_radial_157_1301" cx="0" cy="0" r="1" gradientUnits="userSpaceOnUse" gradientTransform="translate(21.554 3.26057) rotate(135) scale(6.18507 1.48478)">
<stop offset="0.189394" stop-color="#FF5971"/>
<stop offset="1" stop-color="#FF5971" stop-opacity="0"/>
</radialGradient>
<linearGradient id="paint21_linear_157_1301" x1="19.3665" y1="5.09758" x2="19.6419" y2="4.81047" gradientUnits="userSpaceOnUse">
<stop stop-color="#D2575E"/>
<stop offset="1" stop-color="#F93251" stop-opacity="0"/>
</linearGradient>
<linearGradient id="paint22_linear_157_1301" x1="11.3701" y1="12.7987" x2="6.50554" y2="17.6632" gradientUnits="userSpaceOnUse">
<stop stop-color="#FF2644"/>
<stop offset="1" stop-color="#FF2982"/>
</linearGradient>
<radialGradient id="paint23_radial_157_1301" cx="0" cy="0" r="1" gradientUnits="userSpaceOnUse" gradientTransform="translate(4.67679 14.5663) rotate(-20.8651) scale(5.59337 1.46429)">
<stop stop-color="#FF95AF"/>
<stop offset="1" stop-color="#FF95AF" stop-opacity="0"/>
</radialGradient>
<radialGradient id="paint24_radial_157_1301" cx="0" cy="0" r="1" gradientUnits="userSpaceOnUse" gradientTransform="translate(4.04803 15.231) rotate(44.7044) scale(3.45766 1.02136)">
<stop offset="0.381871" stop-color="#E14678"/>
<stop offset="1" stop-color="#E14678" stop-opacity="0"/>
</radialGradient>
<radialGradient id="paint25_radial_157_1301" cx="0" cy="0" r="1" gradientUnits="userSpaceOnUse" gradientTransform="translate(8.6846 14.3554) rotate(84.6743) scale(5.55523 5.91991)">
<stop offset="0.831791" stop-color="#E67BC7" stop-opacity="0"/>
<stop offset="1" stop-color="#E67BC7"/>
</radialGradient>
<linearGradient id="paint26_linear_157_1301" x1="10.4893" y1="13.5819" x2="7.39551" y2="16.8163" gradientUnits="userSpaceOnUse">
<stop stop-color="#FF5970"/>
<stop offset="1" stop-color="#FF5794"/>
</linearGradient>
<clipPath id="clip0_157_1301">
<rect width="24" height="24" fill="white"/>
</clipPath>
</defs>
</svg>
