<svg width="32" height="32" viewBox="0 0 32 32" fill="none" xmlns="http://www.w3.org/2000/svg">
<path d="M15.0835 29.5515C15.6184 29.8501 16.2621 29.8335 16.794 29.5295C20.373 27.4838 26.5913 22.7757 29.0335 16.6602C32.6185 8.69694 24.201 2.34019 18.3834 6.91219C17.7767 7.38895 17.014 7.93457 16.4889 8.45148C16.2512 8.6855 15.8323 8.70934 15.5855 8.48487C14.8952 7.85682 13.8166 7.05141 13.1239 6.58274C8.16424 3.22722 -0.859974 7.65037 2.98944 17.0904C4.39946 21.3274 11.1183 27.3383 15.0835 29.5515Z" fill="url(#paint0_radial_157_943)"/>
<path d="M15.0835 29.5515C15.6184 29.8501 16.2621 29.8335 16.794 29.5295C20.373 27.4838 26.5913 22.7757 29.0335 16.6602C32.6185 8.69694 24.201 2.34019 18.3834 6.91219C17.7767 7.38895 17.014 7.93457 16.4889 8.45148C16.2512 8.6855 15.8323 8.70934 15.5855 8.48487C14.8952 7.85682 13.8166 7.05141 13.1239 6.58274C8.16424 3.22722 -0.859974 7.65037 2.98944 17.0904C4.39946 21.3274 11.1183 27.3383 15.0835 29.5515Z" fill="url(#paint1_radial_157_943)"/>
<path d="M15.0835 29.5515C15.6184 29.8501 16.2621 29.8335 16.794 29.5295C20.373 27.4838 26.5913 22.7757 29.0335 16.6602C32.6185 8.69694 24.201 2.34019 18.3834 6.91219C17.7767 7.38895 17.014 7.93457 16.4889 8.45148C16.2512 8.6855 15.8323 8.70934 15.5855 8.48487C14.8952 7.85682 13.8166 7.05141 13.1239 6.58274C8.16424 3.22722 -0.859974 7.65037 2.98944 17.0904C4.39946 21.3274 11.1183 27.3383 15.0835 29.5515Z" fill="url(#paint2_radial_157_943)"/>
<path d="M15.0835 29.5515C15.6184 29.8501 16.2621 29.8335 16.794 29.5295C20.373 27.4838 26.5913 22.7757 29.0335 16.6602C32.6185 8.69694 24.201 2.34019 18.3834 6.91219C17.7767 7.38895 17.014 7.93457 16.4889 8.45148C16.2512 8.6855 15.8323 8.70934 15.5855 8.48487C14.8952 7.85682 13.8166 7.05141 13.1239 6.58274C8.16424 3.22722 -0.859974 7.65037 2.98944 17.0904C4.39946 21.3274 11.1183 27.3383 15.0835 29.5515Z" fill="url(#paint3_radial_157_943)"/>
<path d="M15.0835 29.5515C15.6184 29.8501 16.2621 29.8335 16.794 29.5295C20.373 27.4838 26.5913 22.7757 29.0335 16.6602C32.6185 8.69694 24.201 2.34019 18.3834 6.91219C17.7767 7.38895 17.014 7.93457 16.4889 8.45148C16.2512 8.6855 15.8323 8.70934 15.5855 8.48487C14.8952 7.85682 13.8166 7.05141 13.1239 6.58274C8.16424 3.22722 -0.859974 7.65037 2.98944 17.0904C4.39946 21.3274 11.1183 27.3383 15.0835 29.5515Z" fill="url(#paint4_linear_157_943)"/>
<path d="M15.0835 29.5515C15.6184 29.8501 16.2621 29.8335 16.794 29.5295C20.373 27.4838 26.5913 22.7757 29.0335 16.6602C32.6185 8.69694 24.201 2.34019 18.3834 6.91219C17.7767 7.38895 17.014 7.93457 16.4889 8.45148C16.2512 8.6855 15.8323 8.70934 15.5855 8.48487C14.8952 7.85682 13.8166 7.05141 13.1239 6.58274C8.16424 3.22722 -0.859974 7.65037 2.98944 17.0904C4.39946 21.3274 11.1183 27.3383 15.0835 29.5515Z" fill="url(#paint5_linear_157_943)"/>
<path d="M16.0127 8.89581C16.9048 9.70354 18.2801 9.46916 19.0332 8.53046C20.177 7.10493 21.7992 5.6373 23.9482 5.50057C22.1234 5.14963 20.1355 5.53531 18.3834 6.91225C18.2328 7.03062 18.0725 7.15322 17.9087 7.27858C17.4242 7.64936 16.9081 8.04421 16.5166 8.42449C16.2633 8.67044 15.819 8.69563 15.557 8.45905C15.5177 8.4236 15.4773 8.38762 15.4358 8.35119C15.5847 8.50212 15.7879 8.69235 16.0127 8.89581Z" fill="url(#paint6_linear_157_943)"/>
<g filter="url(#filter0_f_157_943)">
<path d="M16.5657 12.1188V18.309C16.5657 21.0236 19.4364 21.9304 20.3095 19.3601C21.0569 17.16 21.3751 14.7899 20.7326 12.7221C20.2975 11.3216 19.2472 10.5553 18.261 10.2873C17.2235 10.0052 16.5657 11.0437 16.5657 12.1188Z" fill="#FA1C56"/>
</g>
<g filter="url(#filter1_f_157_943)">
<ellipse cx="24.7069" cy="11.5814" rx="4.15761" ry="2.86074" transform="rotate(-44.1901 24.7069 11.5814)" fill="url(#paint7_radial_157_943)"/>
</g>
<g filter="url(#filter2_f_157_943)">
<ellipse cx="12.4671" cy="11.1875" rx="4.15761" ry="2.86074" transform="rotate(-128.955 12.4671 11.1875)" fill="url(#paint8_radial_157_943)" fill-opacity="0.5"/>
</g>
<g filter="url(#filter3_f_157_943)">
<path d="M8.95275 20.2442L8.39429 17.0053C8.24499 16.5439 7.90991 16.4897 7.72241 16.8022L5.67554 21.0991L8.95275 20.2442Z" fill="#A71135"/>
</g>
<path d="M6.76762 20.1102C6.65561 20.4564 6.39827 20.7367 6.06282 20.8777L3.42802 21.9856C3.01976 22.1572 3.01976 22.7357 3.42802 22.9074L6.07483 24.0203C6.41102 24.1617 6.66871 24.4428 6.78033 24.79L7.9496 28.4269C8.09833 28.8895 8.75287 28.8895 8.9016 28.4269L10.0672 24.8015C10.1785 24.4552 10.4351 24.1746 10.7701 24.0329L13.4311 22.907C13.838 22.7348 13.838 22.1582 13.4311 21.986L10.7821 20.8651C10.4478 20.7237 10.1916 20.444 10.0799 20.0987L8.90132 16.456C8.75203 15.9945 8.09917 15.9945 7.94988 16.456L6.76762 20.1102Z" fill="url(#paint9_linear_157_943)"/>
<path d="M6.76762 20.1102C6.65561 20.4564 6.39827 20.7367 6.06282 20.8777L3.42802 21.9856C3.01976 22.1572 3.01976 22.7357 3.42802 22.9074L6.07483 24.0203C6.41102 24.1617 6.66871 24.4428 6.78033 24.79L7.9496 28.4269C8.09833 28.8895 8.75287 28.8895 8.9016 28.4269L10.0672 24.8015C10.1785 24.4552 10.4351 24.1746 10.7701 24.0329L13.4311 22.907C13.838 22.7348 13.838 22.1582 13.4311 21.986L10.7821 20.8651C10.4478 20.7237 10.1916 20.444 10.0799 20.0987L8.90132 16.456C8.75203 15.9945 8.09917 15.9945 7.94988 16.456L6.76762 20.1102Z" fill="url(#paint10_linear_157_943)"/>
<path d="M6.76762 20.1102C6.65561 20.4564 6.39827 20.7367 6.06282 20.8777L3.42802 21.9856C3.01976 22.1572 3.01976 22.7357 3.42802 22.9074L6.07483 24.0203C6.41102 24.1617 6.66871 24.4428 6.78033 24.79L7.9496 28.4269C8.09833 28.8895 8.75287 28.8895 8.9016 28.4269L10.0672 24.8015C10.1785 24.4552 10.4351 24.1746 10.7701 24.0329L13.4311 22.907C13.838 22.7348 13.838 22.1582 13.4311 21.986L10.7821 20.8651C10.4478 20.7237 10.1916 20.444 10.0799 20.0987L8.90132 16.456C8.75203 15.9945 8.09917 15.9945 7.94988 16.456L6.76762 20.1102Z" fill="url(#paint11_linear_157_943)"/>
<path d="M6.76762 20.1102C6.65561 20.4564 6.39827 20.7367 6.06282 20.8777L3.42802 21.9856C3.01976 22.1572 3.01976 22.7357 3.42802 22.9074L6.07483 24.0203C6.41102 24.1617 6.66871 24.4428 6.78033 24.79L7.9496 28.4269C8.09833 28.8895 8.75287 28.8895 8.9016 28.4269L10.0672 24.8015C10.1785 24.4552 10.4351 24.1746 10.7701 24.0329L13.4311 22.907C13.838 22.7348 13.838 22.1582 13.4311 21.986L10.7821 20.8651C10.4478 20.7237 10.1916 20.444 10.0799 20.0987L8.90132 16.456C8.75203 15.9945 8.09917 15.9945 7.94988 16.456L6.76762 20.1102Z" fill="url(#paint12_radial_157_943)"/>
<path d="M6.867 24.2512H6.43501C6.33025 24.1551 6.20877 24.0766 6.07483 24.0203L3.42802 22.9074C3.01976 22.7357 3.01976 22.1572 3.42802 21.9856L6.06282 20.8777C6.39828 20.7367 6.65561 20.4564 6.76762 20.1102L7.94987 16.456C8.09917 15.9945 8.75203 15.9945 8.90132 16.456L10.0799 20.0987C10.1916 20.444 10.4478 20.7237 10.7821 20.8651L13.4311 21.986C13.838 22.1582 13.838 22.7348 13.4311 22.907L6.20685 23.3371C6.07929 23.3911 6.67169 23.798 6.867 24.2512Z" fill="url(#paint13_linear_157_943)"/>
<path d="M6.867 24.2512H6.43501C6.33025 24.1551 6.20877 24.0766 6.07483 24.0203L3.42802 22.9074C3.01976 22.7357 3.01976 22.1572 3.42802 21.9856L6.06282 20.8777C6.39828 20.7367 6.65561 20.4564 6.76762 20.1102L7.94987 16.456C8.09917 15.9945 8.75203 15.9945 8.90132 16.456L10.0799 20.0987C10.1916 20.444 10.4478 20.7237 10.7821 20.8651L13.4311 21.986C13.838 22.1582 13.838 22.7348 13.4311 22.907L6.20685 23.3371C6.07929 23.3911 6.67169 23.798 6.867 24.2512Z" fill="url(#paint14_linear_157_943)"/>
<path d="M6.43506 24.251C6.59322 24.396 6.71323 24.5809 6.78038 24.7898L7.94965 28.4267C8.09838 28.8893 8.75292 28.8893 8.90166 28.4267L10.0672 24.8013C10.1362 24.5869 10.2608 24.3977 10.4253 24.251H6.43506Z" fill="url(#paint15_linear_157_943)"/>
<g filter="url(#filter4_f_157_943)">
<path d="M8.76929 16.7822L9.73635 20.0219C9.91466 20.6192 10.3613 21.0993 10.9443 21.3201L13.113 22.1416" stroke="url(#paint16_radial_157_943)" stroke-width="0.1" stroke-linecap="round"/>
</g>
<g filter="url(#filter5_f_157_943)">
<path d="M8.53491 28.9385L9.62866 25.3447" stroke="url(#paint17_linear_157_943)" stroke-width="0.1" stroke-linecap="round"/>
</g>
<g filter="url(#filter6_f_157_943)">
<path d="M6.81616 21.1416L8.12866 16.7822" stroke="url(#paint18_linear_157_943)" stroke-width="0.1" stroke-linecap="round"/>
</g>
<g filter="url(#filter7_f_157_943)">
<path d="M21.7958 10.1565C21.6657 10.443 21.4322 10.67 21.1421 10.792L19.8597 11.3312C19.636 11.4253 19.636 11.7423 19.8597 11.8364L21.1623 12.3841C21.4447 12.5029 21.6736 12.7211 21.8057 12.9975L22.6381 14.7396C22.7196 14.9931 23.0783 14.9931 23.1599 14.7396L23.4645 13.2232C23.5459 12.818 23.8223 12.4793 24.2029 12.3182L25.3422 11.8362C25.5652 11.7418 25.5652 11.4258 25.3422 11.3314L24.1282 10.8177C23.7939 10.6763 23.5378 10.3971 23.4261 10.0518C23.2243 9.42801 22.9139 8.46872 22.8595 8.30052C22.7777 8.04761 22.7202 8.04761 22.6384 8.30052L21.7958 10.1565Z" fill="#C01942"/>
</g>
<path d="M22.3111 9.92505C22.1991 10.2713 21.9417 10.5515 21.6063 10.6926L20.401 11.1994C20.1772 11.2934 20.1772 11.6105 20.401 11.7046L21.6123 12.2139C21.9485 12.3553 22.2062 12.6364 22.3178 12.9836L22.8792 14.7297C22.9607 14.9832 23.3194 14.9832 23.4009 14.7297L23.9605 12.9892C24.0718 12.6429 24.3285 12.3623 24.6634 12.2206L25.8834 11.7043C26.1064 11.61 26.1064 11.294 25.8834 11.1996L24.6694 10.6859C24.3352 10.5445 24.0789 10.2648 23.9672 9.9195L23.4008 8.16869C23.319 7.91578 22.9611 7.91578 22.8793 8.16869L22.3111 9.92505Z" fill="url(#paint19_linear_157_943)"/>
<path d="M22.3111 9.92505C22.1991 10.2713 21.9417 10.5515 21.6063 10.6926L20.401 11.1994C20.1772 11.2934 20.1772 11.6105 20.401 11.7046L21.6123 12.2139C21.9485 12.3553 22.2062 12.6364 22.3178 12.9836L22.8792 14.7297C22.9607 14.9832 23.3194 14.9832 23.4009 14.7297L23.9605 12.9892C24.0718 12.6429 24.3285 12.3623 24.6634 12.2206L25.8834 11.7043C26.1064 11.61 26.1064 11.294 25.8834 11.1996L24.6694 10.6859C24.3352 10.5445 24.0789 10.2648 23.9672 9.9195L23.4008 8.16869C23.319 7.91578 22.9611 7.91578 22.8793 8.16869L22.3111 9.92505Z" fill="url(#paint20_linear_157_943)"/>
<path d="M22.3111 9.92505C22.1991 10.2713 21.9417 10.5515 21.6063 10.6926L20.401 11.1994C20.1772 11.2934 20.1772 11.6105 20.401 11.7046L21.6123 12.2139C21.9485 12.3553 22.2062 12.6364 22.3178 12.9836L22.8792 14.7297C22.9607 14.9832 23.3194 14.9832 23.4009 14.7297L23.9605 12.9892C24.0718 12.6429 24.3285 12.3623 24.6634 12.2206L25.8834 11.7043C26.1064 11.61 26.1064 11.294 25.8834 11.1996L24.6694 10.6859C24.3352 10.5445 24.0789 10.2648 23.9672 9.9195L23.4008 8.16869C23.319 7.91578 22.9611 7.91578 22.8793 8.16869L22.3111 9.92505Z" fill="url(#paint21_linear_157_943)"/>
<path d="M22.3111 9.92505C22.1991 10.2713 21.9417 10.5515 21.6063 10.6926L20.401 11.1994C20.1772 11.2934 20.1772 11.6105 20.401 11.7046L21.6123 12.2139C21.9485 12.3553 22.2062 12.6364 22.3178 12.9836L22.8792 14.7297C22.9607 14.9832 23.3194 14.9832 23.4009 14.7297L23.9605 12.9892C24.0718 12.6429 24.3285 12.3623 24.6634 12.2206L25.8834 11.7043C26.1064 11.61 26.1064 11.294 25.8834 11.1996L24.6694 10.6859C24.3352 10.5445 24.0789 10.2648 23.9672 9.9195L23.4008 8.16869C23.319 7.91578 22.9611 7.91578 22.8793 8.16869L22.3111 9.92505Z" fill="url(#paint22_radial_157_943)"/>
<path d="M22.2858 12.4411H22.049C21.9916 12.3884 21.925 12.3454 21.8516 12.3146L20.401 11.7046C20.1772 11.6105 20.1772 11.2934 20.401 11.1994L21.8451 10.5922C22.0289 10.5148 22.1699 10.3613 22.2313 10.1715L22.8793 8.16869C22.9611 7.91578 23.319 7.91578 23.4008 8.16869L24.0467 10.1652C24.1079 10.3545 24.2484 10.5078 24.4316 10.5853L25.8834 11.1996C26.1064 11.294 26.1064 11.61 25.8834 11.7043L21.924 11.9401C21.8541 11.9697 22.1788 12.1927 22.2858 12.4411Z" fill="url(#paint23_linear_157_943)"/>
<path d="M22.2858 12.4411H22.049C21.9916 12.3884 21.925 12.3454 21.8516 12.3146L20.401 11.7046C20.1772 11.6105 20.1772 11.2934 20.401 11.1994L21.8451 10.5922C22.0289 10.5148 22.1699 10.3613 22.2313 10.1715L22.8793 8.16869C22.9611 7.91578 23.319 7.91578 23.4008 8.16869L24.0467 10.1652C24.1079 10.3545 24.2484 10.5078 24.4316 10.5853L25.8834 11.1996C26.1064 11.294 26.1064 11.61 25.8834 11.7043L21.924 11.9401C21.8541 11.9697 22.1788 12.1927 22.2858 12.4411Z" fill="url(#paint24_linear_157_943)"/>
<path d="M22.0488 12.4414C22.1355 12.5209 22.2013 12.6223 22.2381 12.7367L22.8789 14.73C22.9605 14.9836 23.3192 14.9836 23.4007 14.73L24.0395 12.743C24.0773 12.6255 24.1456 12.5218 24.2358 12.4414H22.0488Z" fill="url(#paint25_linear_157_943)"/>
<g filter="url(#filter8_f_157_943)">
<path d="M23.3284 8.34766L23.7305 9.69488C23.9088 10.2923 24.3555 10.7723 24.9385 10.9931L25.7091 11.285" stroke="url(#paint26_radial_157_943)" stroke-width="0.1" stroke-linecap="round"/>
</g>
<g filter="url(#filter9_f_157_943)">
<path d="M23.2 15.0102L23.7994 13.0405" stroke="url(#paint27_linear_157_943)" stroke-width="0.1" stroke-linecap="round"/>
</g>
<g filter="url(#filter10_f_157_943)">
<path d="M22.2578 10.7369L22.9772 8.34766" stroke="url(#paint28_linear_157_943)" stroke-width="0.1" stroke-linecap="round"/>
</g>
<defs>
<filter id="filter0_f_157_943" x="14.5657" y="8.24023" width="8.51245" height="14.6431" filterUnits="userSpaceOnUse" color-interpolation-filters="sRGB">
<feFlood flood-opacity="0" result="BackgroundImageFix"/>
<feBlend mode="normal" in="SourceGraphic" in2="BackgroundImageFix" result="shape"/>
<feGaussianBlur stdDeviation="1" result="effect1_foregroundBlur_157_943"/>
</filter>
<filter id="filter1_f_157_943" x="19.6199" y="6.53076" width="10.1738" height="10.1016" filterUnits="userSpaceOnUse" color-interpolation-filters="sRGB">
<feFlood flood-opacity="0" result="BackgroundImageFix"/>
<feBlend mode="normal" in="SourceGraphic" in2="BackgroundImageFix" result="shape"/>
<feGaussianBlur stdDeviation="0.75" result="effect1_foregroundBlur_157_943"/>
</filter>
<filter id="filter2_f_157_943" x="7.53467" y="5.9873" width="9.86499" height="10.4004" filterUnits="userSpaceOnUse" color-interpolation-filters="sRGB">
<feFlood flood-opacity="0" result="BackgroundImageFix"/>
<feBlend mode="normal" in="SourceGraphic" in2="BackgroundImageFix" result="shape"/>
<feGaussianBlur stdDeviation="0.75" result="effect1_foregroundBlur_157_943"/>
</filter>
<filter id="filter3_f_157_943" x="4.67554" y="15.6055" width="5.2771" height="6.49365" filterUnits="userSpaceOnUse" color-interpolation-filters="sRGB">
<feFlood flood-opacity="0" result="BackgroundImageFix"/>
<feBlend mode="normal" in="SourceGraphic" in2="BackgroundImageFix" result="shape"/>
<feGaussianBlur stdDeviation="0.5" result="effect1_foregroundBlur_157_943"/>
</filter>
<filter id="filter4_f_157_943" x="8.46924" y="16.4824" width="4.94385" height="5.95898" filterUnits="userSpaceOnUse" color-interpolation-filters="sRGB">
<feFlood flood-opacity="0" result="BackgroundImageFix"/>
<feBlend mode="normal" in="SourceGraphic" in2="BackgroundImageFix" result="shape"/>
<feGaussianBlur stdDeviation="0.125" result="effect1_foregroundBlur_157_943"/>
</filter>
<filter id="filter5_f_157_943" x="8.33486" y="25.1449" width="1.49385" height="3.99336" filterUnits="userSpaceOnUse" color-interpolation-filters="sRGB">
<feFlood flood-opacity="0" result="BackgroundImageFix"/>
<feBlend mode="normal" in="SourceGraphic" in2="BackgroundImageFix" result="shape"/>
<feGaussianBlur stdDeviation="0.075" result="effect1_foregroundBlur_157_943"/>
</filter>
<filter id="filter6_f_157_943" x="6.46611" y="16.4324" width="2.0126" height="5.05898" filterUnits="userSpaceOnUse" color-interpolation-filters="sRGB">
<feFlood flood-opacity="0" result="BackgroundImageFix"/>
<feBlend mode="normal" in="SourceGraphic" in2="BackgroundImageFix" result="shape"/>
<feGaussianBlur stdDeviation="0.15" result="effect1_foregroundBlur_157_943"/>
</filter>
<filter id="filter7_f_157_943" x="18.9419" y="7.36084" width="7.31763" height="8.31885" filterUnits="userSpaceOnUse" color-interpolation-filters="sRGB">
<feFlood flood-opacity="0" result="BackgroundImageFix"/>
<feBlend mode="normal" in="SourceGraphic" in2="BackgroundImageFix" result="shape"/>
<feGaussianBlur stdDeviation="0.375" result="effect1_foregroundBlur_157_943"/>
</filter>
<filter id="filter8_f_157_943" x="23.0283" y="8.04785" width="2.98071" height="3.53711" filterUnits="userSpaceOnUse" color-interpolation-filters="sRGB">
<feFlood flood-opacity="0" result="BackgroundImageFix"/>
<feBlend mode="normal" in="SourceGraphic" in2="BackgroundImageFix" result="shape"/>
<feGaussianBlur stdDeviation="0.125" result="effect1_foregroundBlur_157_943"/>
</filter>
<filter id="filter9_f_157_943" x="22.9999" y="12.8407" width="0.999463" height="2.36934" filterUnits="userSpaceOnUse" color-interpolation-filters="sRGB">
<feFlood flood-opacity="0" result="BackgroundImageFix"/>
<feBlend mode="normal" in="SourceGraphic" in2="BackgroundImageFix" result="shape"/>
<feGaussianBlur stdDeviation="0.075" result="effect1_foregroundBlur_157_943"/>
</filter>
<filter id="filter10_f_157_943" x="21.9078" y="7.99785" width="1.41934" height="3.08926" filterUnits="userSpaceOnUse" color-interpolation-filters="sRGB">
<feFlood flood-opacity="0" result="BackgroundImageFix"/>
<feBlend mode="normal" in="SourceGraphic" in2="BackgroundImageFix" result="shape"/>
<feGaussianBlur stdDeviation="0.15" result="effect1_foregroundBlur_157_943"/>
</filter>
<radialGradient id="paint0_radial_157_943" cx="0" cy="0" r="1" gradientUnits="userSpaceOnUse" gradientTransform="translate(18.8004 29.3302) rotate(-90) scale(32.5418 55.321)">
<stop stop-color="#F12E52"/>
<stop offset="0.596003" stop-color="#FF3B79"/>
<stop offset="1" stop-color="#FF4EC6"/>
</radialGradient>
<radialGradient id="paint1_radial_157_943" cx="0" cy="0" r="1" gradientUnits="userSpaceOnUse" gradientTransform="translate(22.8833 11.7341) rotate(142.986) scale(26.1961 49.0678)">
<stop offset="0.483055" stop-color="#B91D43" stop-opacity="0"/>
<stop offset="0.833898" stop-color="#B91D43"/>
</radialGradient>
<radialGradient id="paint2_radial_157_943" cx="0" cy="0" r="1" gradientUnits="userSpaceOnUse" gradientTransform="translate(19.8587 18.1522) rotate(-158.663) scale(22.7229 32.122)">
<stop offset="0.40984" stop-color="#B91D43" stop-opacity="0"/>
<stop offset="0.833898" stop-color="#B91D43"/>
</radialGradient>
<radialGradient id="paint3_radial_157_943" cx="0" cy="0" r="1" gradientUnits="userSpaceOnUse" gradientTransform="translate(15.4272 14.1837) rotate(90) scale(19.7764)">
<stop offset="0.671096" stop-color="#FF7AF2" stop-opacity="0"/>
<stop offset="0.933555" stop-color="#FFBCE6"/>
</radialGradient>
<linearGradient id="paint4_linear_157_943" x1="17.6099" y1="16.4987" x2="25.613" y2="26.0231" gradientUnits="userSpaceOnUse">
<stop offset="0.694491" stop-color="#FF7AF2" stop-opacity="0"/>
<stop offset="0.933555" stop-color="#FFBCE6"/>
</linearGradient>
<linearGradient id="paint5_linear_157_943" x1="16.6177" y1="16.8955" x2="7.22558" y2="27.4782" gradientUnits="userSpaceOnUse">
<stop offset="0.694491" stop-color="#FF7AF2" stop-opacity="0"/>
<stop offset="0.933555" stop-color="#FFBCE6"/>
</linearGradient>
<linearGradient id="paint6_linear_157_943" x1="19.6875" y1="9.71919" x2="16.8811" y2="6.63576" gradientUnits="userSpaceOnUse">
<stop offset="0.40984" stop-color="#C12372" stop-opacity="0"/>
<stop offset="0.833898" stop-color="#B5286E"/>
</linearGradient>
<radialGradient id="paint7_radial_157_943" cx="0" cy="0" r="1" gradientUnits="userSpaceOnUse" gradientTransform="translate(28.8911 12.4611) rotate(-176.775) scale(6.14843 4.1517)">
<stop stop-color="#FF93BA"/>
<stop offset="1" stop-color="#FF73A6" stop-opacity="0"/>
</radialGradient>
<radialGradient id="paint8_radial_157_943" cx="0" cy="0" r="1" gradientUnits="userSpaceOnUse" gradientTransform="translate(14.9214 11.9601) rotate(-178.3) scale(8.84998 5.97591)">
<stop stop-color="#FF93BA"/>
<stop offset="1" stop-color="#FF73A6" stop-opacity="0"/>
</radialGradient>
<linearGradient id="paint9_linear_157_943" x1="9.39435" y1="16.1099" x2="6.6756" y2="25.9074" gradientUnits="userSpaceOnUse">
<stop stop-color="#FFD542"/>
<stop offset="1" stop-color="#FFA847"/>
</linearGradient>
<linearGradient id="paint10_linear_157_943" x1="7.51935" y1="25.3449" x2="6.74962" y2="29.5829" gradientUnits="userSpaceOnUse">
<stop offset="0.458251" stop-color="#E88518" stop-opacity="0"/>
<stop offset="1" stop-color="#E88518"/>
</linearGradient>
<linearGradient id="paint11_linear_157_943" x1="5.83185" y1="24.3762" x2="1.59737" y2="24.2632" gradientUnits="userSpaceOnUse">
<stop offset="0.361577" stop-color="#E88518" stop-opacity="0"/>
<stop offset="1" stop-color="#E88518"/>
</linearGradient>
<radialGradient id="paint12_radial_157_943" cx="0" cy="0" r="1" gradientUnits="userSpaceOnUse" gradientTransform="translate(10.1443 12.6262) rotate(103.828) scale(7.17675 19.8288)">
<stop stop-color="#FFFF6B"/>
<stop offset="1" stop-color="#FFFF6B" stop-opacity="0"/>
</radialGradient>
<linearGradient id="paint13_linear_157_943" x1="7.44122" y1="22.298" x2="6.42722" y2="24.4642" gradientUnits="userSpaceOnUse">
<stop offset="0.781564" stop-color="#E88518" stop-opacity="0"/>
<stop offset="1" stop-color="#E88518"/>
</linearGradient>
<linearGradient id="paint14_linear_157_943" x1="7.44122" y1="22.298" x2="6.42722" y2="24.4642" gradientUnits="userSpaceOnUse">
<stop offset="0.781564" stop-color="#E88518" stop-opacity="0"/>
<stop offset="1" stop-color="#E88518"/>
</linearGradient>
<linearGradient id="paint15_linear_157_943" x1="9.61537" y1="26.8906" x2="7.4984" y2="27.6008" gradientUnits="userSpaceOnUse">
<stop offset="0.776042" stop-color="#E88518" stop-opacity="0"/>
<stop offset="1" stop-color="#E88518"/>
</linearGradient>
<radialGradient id="paint16_radial_157_943" cx="0" cy="0" r="1" gradientUnits="userSpaceOnUse" gradientTransform="translate(8.12866 16.7822) rotate(43.142) scale(7.83754 6.70166)">
<stop stop-color="#FFF270" stop-opacity="0"/>
<stop offset="0.548137" stop-color="#FFF270"/>
<stop offset="1" stop-color="#FFF270" stop-opacity="0"/>
</radialGradient>
<linearGradient id="paint17_linear_157_943" x1="9.06616" y1="27.4854" x2="8.20451" y2="26.0778" gradientUnits="userSpaceOnUse">
<stop stop-color="#FFF270" stop-opacity="0"/>
<stop offset="0.494792" stop-color="#FFF270" stop-opacity="0.6"/>
<stop offset="1" stop-color="#FFF270" stop-opacity="0"/>
</linearGradient>
<linearGradient id="paint18_linear_157_943" x1="8.00366" y1="16.4541" x2="9.6833" y2="18.8963" gradientUnits="userSpaceOnUse">
<stop stop-color="#FF8A09" stop-opacity="0.6"/>
<stop offset="1" stop-color="#FF8A09" stop-opacity="0"/>
</linearGradient>
<linearGradient id="paint19_linear_157_943" x1="23.671" y1="7.979" x2="22.1809" y2="13.3488" gradientUnits="userSpaceOnUse">
<stop stop-color="#FFD542"/>
<stop offset="1" stop-color="#FFA847"/>
</linearGradient>
<linearGradient id="paint20_linear_157_943" x1="22.6433" y1="13.0405" x2="22.2215" y2="15.3633" gradientUnits="userSpaceOnUse">
<stop offset="0.458251" stop-color="#E88518" stop-opacity="0"/>
<stop offset="1" stop-color="#E88518"/>
</linearGradient>
<linearGradient id="paint21_linear_157_943" x1="21.7185" y1="12.5096" x2="19.3976" y2="12.4477" gradientUnits="userSpaceOnUse">
<stop offset="0.361577" stop-color="#E88518" stop-opacity="0"/>
<stop offset="1" stop-color="#E88518"/>
</linearGradient>
<radialGradient id="paint22_radial_157_943" cx="0" cy="0" r="1" gradientUnits="userSpaceOnUse" gradientTransform="translate(24.0821 6.06966) rotate(103.828) scale(3.93343 10.8678)">
<stop stop-color="#FFFF6B"/>
<stop offset="1" stop-color="#FFFF6B" stop-opacity="0"/>
</radialGradient>
<linearGradient id="paint23_linear_157_943" x1="22.6005" y1="11.3706" x2="22.0448" y2="12.5578" gradientUnits="userSpaceOnUse">
<stop offset="0.781564" stop-color="#E88518" stop-opacity="0"/>
<stop offset="1" stop-color="#E88518"/>
</linearGradient>
<linearGradient id="paint24_linear_157_943" x1="22.6005" y1="11.3706" x2="22.0448" y2="12.5578" gradientUnits="userSpaceOnUse">
<stop offset="0.781564" stop-color="#E88518" stop-opacity="0"/>
<stop offset="1" stop-color="#E88518"/>
</linearGradient>
<linearGradient id="paint25_linear_157_943" x1="23.7919" y1="13.8881" x2="22.6316" y2="14.2774" gradientUnits="userSpaceOnUse">
<stop offset="0.776042" stop-color="#E88518" stop-opacity="0"/>
<stop offset="1" stop-color="#E88518"/>
</linearGradient>
<radialGradient id="paint26_radial_157_943" cx="0" cy="0" r="1" gradientUnits="userSpaceOnUse" gradientTransform="translate(22.9773 8.34766) rotate(43.142) scale(4.29559 3.67304)">
<stop stop-color="#FFF270" stop-opacity="0"/>
<stop offset="0.548137" stop-color="#FFF270"/>
<stop offset="1" stop-color="#FFF270" stop-opacity="0"/>
</radialGradient>
<linearGradient id="paint27_linear_157_943" x1="23.4911" y1="14.2138" x2="23.0189" y2="13.4423" gradientUnits="userSpaceOnUse">
<stop stop-color="#FFF270" stop-opacity="0"/>
<stop offset="0.494792" stop-color="#FFF270" stop-opacity="0.6"/>
<stop offset="1" stop-color="#FFF270" stop-opacity="0"/>
</linearGradient>
<linearGradient id="paint28_linear_157_943" x1="22.9087" y1="8.16782" x2="23.8292" y2="9.50631" gradientUnits="userSpaceOnUse">
<stop stop-color="#FF8A09" stop-opacity="0.6"/>
<stop offset="1" stop-color="#FF8A09" stop-opacity="0"/>
</linearGradient>
</defs>
</svg>
