<svg width="32" height="32" viewBox="0 0 32 32" fill="none" xmlns="http://www.w3.org/2000/svg">
<path d="M15.037 29.2015C15.5719 29.5 16.2156 29.4835 16.7475 29.1795C20.3305 27.1318 26.5569 22.4179 29.0021 16.2948C32.5912 8.3224 24.164 1.95834 18.3397 6.5356C17.7321 7.01307 16.9682 7.55954 16.4425 8.07719C16.2048 8.31124 15.7859 8.33511 15.5392 8.11061C14.8481 7.48177 13.7679 6.67511 13.0742 6.20577C8.1088 2.84639 -0.925809 7.27463 2.92804 16.7255C4.33979 20.9677 11.0673 26.9862 15.037 29.2015Z" fill="url(#paint0_radial_157_970)"/>
<path d="M15.037 29.2015C15.5719 29.5 16.2156 29.4835 16.7475 29.1795C20.3305 27.1318 26.5569 22.4179 29.0021 16.2948C32.5912 8.3224 24.164 1.95834 18.3397 6.5356C17.7321 7.01307 16.9682 7.55954 16.4425 8.07719C16.2048 8.31124 15.7859 8.33511 15.5392 8.11061C14.8481 7.48177 13.7679 6.67511 13.0742 6.20577C8.1088 2.84639 -0.925809 7.27463 2.92804 16.7255C4.33979 20.9677 11.0673 26.9862 15.037 29.2015Z" fill="url(#paint1_radial_157_970)"/>
<path d="M15.037 29.2015C15.5719 29.5 16.2156 29.4835 16.7475 29.1795C20.3305 27.1318 26.5569 22.4179 29.0021 16.2948C32.5912 8.3224 24.164 1.95834 18.3397 6.5356C17.7321 7.01307 16.9682 7.55954 16.4425 8.07719C16.2048 8.31124 15.7859 8.33511 15.5392 8.11061C14.8481 7.48177 13.7679 6.67511 13.0742 6.20577C8.1088 2.84639 -0.925809 7.27463 2.92804 16.7255C4.33979 20.9677 11.0673 26.9862 15.037 29.2015Z" fill="url(#paint2_linear_157_970)"/>
<path d="M15.037 29.2015C15.5719 29.5 16.2156 29.4835 16.7475 29.1795C20.3305 27.1318 26.5569 22.4179 29.0021 16.2948C32.5912 8.3224 24.164 1.95834 18.3397 6.5356C17.7321 7.01307 16.9682 7.55954 16.4425 8.07719C16.2048 8.31124 15.7859 8.33511 15.5392 8.11061C14.8481 7.48177 13.7679 6.67511 13.0742 6.20577C8.1088 2.84639 -0.925809 7.27463 2.92804 16.7255C4.33979 20.9677 11.0673 26.9862 15.037 29.2015Z" fill="url(#paint3_radial_157_970)"/>
<path d="M15.037 29.2015C15.5719 29.5 16.2156 29.4835 16.7475 29.1795C20.3305 27.1318 26.5569 22.4179 29.0021 16.2948C32.5912 8.3224 24.164 1.95834 18.3397 6.5356C17.7321 7.01307 16.9682 7.55954 16.4425 8.07719C16.2048 8.31124 15.7859 8.33511 15.5392 8.11061C14.8481 7.48177 13.7679 6.67511 13.0742 6.20577C8.1088 2.84639 -0.925809 7.27463 2.92804 16.7255C4.33979 20.9677 11.0673 26.9862 15.037 29.2015Z" fill="url(#paint4_radial_157_970)"/>
<path d="M15.037 29.2015C15.5719 29.5 16.2156 29.4835 16.7475 29.1795C20.3305 27.1318 26.5569 22.4179 29.0021 16.2948C32.5912 8.3224 24.164 1.95834 18.3397 6.5356C17.7321 7.01307 16.9682 7.55954 16.4425 8.07719C16.2048 8.31124 15.7859 8.33511 15.5392 8.11061C14.8481 7.48177 13.7679 6.67511 13.0742 6.20577C8.1088 2.84639 -0.925809 7.27463 2.92804 16.7255C4.33979 20.9677 11.0673 26.9862 15.037 29.2015Z" fill="url(#paint5_radial_157_970)"/>
<path d="M15.037 29.2015C15.5719 29.5 16.2156 29.4835 16.7475 29.1795C20.3305 27.1318 26.5569 22.4179 29.0021 16.2948C32.5912 8.3224 24.164 1.95834 18.3397 6.5356C17.7321 7.01307 16.9682 7.55954 16.4425 8.07719C16.2048 8.31124 15.7859 8.33511 15.5392 8.11061C14.8481 7.48177 13.7679 6.67511 13.0742 6.20577C8.1088 2.84639 -0.925809 7.27463 2.92804 16.7255C4.33979 20.9677 11.0673 26.9862 15.037 29.2015Z" fill="url(#paint6_radial_157_970)"/>
<path d="M15.037 29.2015C15.5719 29.5 16.2156 29.4835 16.7475 29.1795C20.3305 27.1318 26.5569 22.4179 29.0021 16.2948C32.5912 8.3224 24.164 1.95834 18.3397 6.5356C17.7321 7.01307 16.9682 7.55954 16.4425 8.07719C16.2048 8.31124 15.7859 8.33511 15.5392 8.11061C14.8481 7.48177 13.7679 6.67511 13.0742 6.20577C8.1088 2.84639 -0.925809 7.27463 2.92804 16.7255C4.33979 20.9677 11.0673 26.9862 15.037 29.2015Z" fill="url(#paint7_radial_157_970)"/>
<path d="M15.037 29.2015C15.5719 29.5 16.2156 29.4835 16.7475 29.1795C20.3305 27.1318 26.5569 22.4179 29.0021 16.2948C32.5912 8.3224 24.164 1.95834 18.3397 6.5356C17.7321 7.01307 16.9682 7.55954 16.4425 8.07719C16.2048 8.31124 15.7859 8.33511 15.5392 8.11061C14.8481 7.48177 13.7679 6.67511 13.0742 6.20577C8.1088 2.84639 -0.925809 7.27463 2.92804 16.7255C4.33979 20.9677 11.0673 26.9862 15.037 29.2015Z" fill="url(#paint8_linear_157_970)" fill-opacity="0.25"/>
<path d="M15.5352 8.10679L15.5394 8.11061C15.7861 8.33511 16.2049 8.31124 16.4426 8.07719C16.8379 7.68801 17.3678 7.28254 17.8646 6.90235C18.0286 6.77685 18.189 6.6541 18.3398 6.5356C24.1641 1.95834 32.5913 8.3224 29.0023 16.2948C28.5146 17.5159 27.8766 18.681 27.1391 19.7801L15.5352 8.10679Z" fill="url(#paint9_radial_157_970)"/>
<path d="M15.5352 8.10679L15.5394 8.11061C15.7861 8.33511 16.2049 8.31124 16.4426 8.07719C16.8379 7.68801 17.3678 7.28254 17.8646 6.90235C18.0286 6.77685 18.189 6.6541 18.3398 6.5356C24.1641 1.95834 32.5913 8.3224 29.0023 16.2948C28.5146 17.5159 27.8766 18.681 27.1391 19.7801L15.5352 8.10679Z" fill="url(#paint10_radial_157_970)"/>
<g filter="url(#filter0_f_157_970)">
<path d="M16.1655 10.4784V19.2968C16.1655 20.335 17.5652 20.6927 18.0318 19.7652C19.4844 16.8774 20.695 13.6915 19.7098 11.4397C18.8843 9.55267 17.6547 9.34615 16.6933 9.66235C16.3529 9.77433 16.1655 10.12 16.1655 10.4784Z" fill="url(#paint11_radial_157_970)"/>
</g>
<g filter="url(#filter1_f_157_970)">
<ellipse cx="9.26328" cy="6.28853" rx="1.51865" ry="0.249413" transform="rotate(-0.697201 9.26328 6.28853)" fill="url(#paint12_radial_157_970)"/>
</g>
<g filter="url(#filter2_f_157_970)">
<path d="M14.665 9.31438L14.9776 22.3769C8.10259 15.6894 6.2631 7.86813 8.89756 6.81438C11.5321 5.76062 13.9151 7.75188 14.665 9.31438Z" fill="url(#paint13_radial_157_970)"/>
</g>
<g filter="url(#filter3_f_157_970)">
<ellipse cx="23.2163" cy="12.4474" rx="5.32663" ry="5.7404" fill="url(#paint14_radial_157_970)"/>
</g>
<g filter="url(#filter4_f_157_970)">
<path d="M26.835 15.127C25.7725 17.6895 21.3975 23.0645 18.2725 25.127" stroke="#FFC037" stroke-linecap="round"/>
</g>
<g filter="url(#filter5_f_157_970)">
<path d="M4.52246 13.252C5.70996 18.752 11.6475 23.3145 14.7725 25.377" stroke="#FAA730" stroke-linecap="round"/>
</g>
<defs>
<filter id="filter0_f_157_970" x="13.1655" y="6.54102" width="9.90186" height="16.7588" filterUnits="userSpaceOnUse" color-interpolation-filters="sRGB">
<feFlood flood-opacity="0" result="BackgroundImageFix"/>
<feBlend mode="normal" in="SourceGraphic" in2="BackgroundImageFix" result="shape"/>
<feGaussianBlur stdDeviation="1.5" result="effect1_foregroundBlur_157_970"/>
</filter>
<filter id="filter1_f_157_970" x="6.24463" y="4.53857" width="6.03711" height="3.5" filterUnits="userSpaceOnUse" color-interpolation-filters="sRGB">
<feFlood flood-opacity="0" result="BackgroundImageFix"/>
<feBlend mode="normal" in="SourceGraphic" in2="BackgroundImageFix" result="shape"/>
<feGaussianBlur stdDeviation="0.75" result="effect1_foregroundBlur_157_970"/>
</filter>
<filter id="filter2_f_157_970" x="4.74805" y="3.51953" width="13.2295" height="21.8574" filterUnits="userSpaceOnUse" color-interpolation-filters="sRGB">
<feFlood flood-opacity="0" result="BackgroundImageFix"/>
<feBlend mode="normal" in="SourceGraphic" in2="BackgroundImageFix" result="shape"/>
<feGaussianBlur stdDeviation="1.5" result="effect1_foregroundBlur_157_970"/>
</filter>
<filter id="filter3_f_157_970" x="14.8896" y="3.70703" width="16.6533" height="17.481" filterUnits="userSpaceOnUse" color-interpolation-filters="sRGB">
<feFlood flood-opacity="0" result="BackgroundImageFix"/>
<feBlend mode="normal" in="SourceGraphic" in2="BackgroundImageFix" result="shape"/>
<feGaussianBlur stdDeviation="1.5" result="effect1_foregroundBlur_157_970"/>
</filter>
<filter id="filter4_f_157_970" x="14.7725" y="11.627" width="15.5625" height="17" filterUnits="userSpaceOnUse" color-interpolation-filters="sRGB">
<feFlood flood-opacity="0" result="BackgroundImageFix"/>
<feBlend mode="normal" in="SourceGraphic" in2="BackgroundImageFix" result="shape"/>
<feGaussianBlur stdDeviation="1.5" result="effect1_foregroundBlur_157_970"/>
</filter>
<filter id="filter5_f_157_970" x="1.02246" y="9.75195" width="17.25" height="19.125" filterUnits="userSpaceOnUse" color-interpolation-filters="sRGB">
<feFlood flood-opacity="0" result="BackgroundImageFix"/>
<feBlend mode="normal" in="SourceGraphic" in2="BackgroundImageFix" result="shape"/>
<feGaussianBlur stdDeviation="1.5" result="effect1_foregroundBlur_157_970"/>
</filter>
<radialGradient id="paint0_radial_157_970" cx="0" cy="0" r="1" gradientUnits="userSpaceOnUse" gradientTransform="translate(14.887 9.75201) rotate(90) scale(23.5 58.948)">
<stop offset="0.113615" stop-color="#FFD765"/>
<stop offset="1" stop-color="#FF8040"/>
</radialGradient>
<radialGradient id="paint1_radial_157_970" cx="0" cy="0" r="1" gradientUnits="userSpaceOnUse" gradientTransform="translate(24.7101 8.81451) rotate(116.407) scale(10.1182 9.41358)">
<stop stop-color="#FFD765"/>
<stop offset="1" stop-color="#FFD765" stop-opacity="0"/>
</radialGradient>
<linearGradient id="paint2_linear_157_970" x1="13.6204" y1="16.3458" x2="4.62035" y2="26.0333" gradientUnits="userSpaceOnUse">
<stop offset="0.401885" stop-color="#ED7839" stop-opacity="0"/>
<stop offset="1" stop-color="#ED7839"/>
</linearGradient>
<radialGradient id="paint3_radial_157_970" cx="0" cy="0" r="1" gradientUnits="userSpaceOnUse" gradientTransform="translate(22.8448 11.3631) rotate(129.54) scale(22.7917 42.6912)">
<stop offset="0.797874" stop-color="#FF69CF" stop-opacity="0"/>
<stop offset="0.908039" stop-color="#FF69CF"/>
</radialGradient>
<radialGradient id="paint4_radial_157_970" cx="0" cy="0" r="1" gradientUnits="userSpaceOnUse" gradientTransform="translate(17.3351 17.627) rotate(-154.151) scale(22.3624 27.2087)">
<stop offset="0.586471" stop-color="#9B7C23" stop-opacity="0"/>
<stop offset="1" stop-color="#9B7C23"/>
</radialGradient>
<radialGradient id="paint5_radial_157_970" cx="0" cy="0" r="1" gradientUnits="userSpaceOnUse" gradientTransform="translate(17.3351 17.627) rotate(-152.113) scale(18.1729 16.0734)">
<stop offset="0.915063" stop-color="#9B7C23" stop-opacity="0"/>
<stop offset="1" stop-color="#9B7C23"/>
</radialGradient>
<radialGradient id="paint6_radial_157_970" cx="0" cy="0" r="1" gradientUnits="userSpaceOnUse" gradientTransform="translate(15.3801 13.8155) rotate(90) scale(19.7992 26.4278)">
<stop offset="0.671096" stop-color="#FF69CF" stop-opacity="0"/>
<stop offset="0.933555" stop-color="#FF69CF"/>
</radialGradient>
<radialGradient id="paint7_radial_157_970" cx="0" cy="0" r="1" gradientUnits="userSpaceOnUse" gradientTransform="translate(10.2726 9.37702) rotate(44.2476) scale(23.5575 65.6093)">
<stop offset="0.776949" stop-color="#FF69CF" stop-opacity="0"/>
<stop offset="1" stop-color="#FF69CF"/>
</radialGradient>
<linearGradient id="paint8_linear_157_970" x1="16.5226" y1="13.002" x2="14.8871" y2="29.9395" gradientUnits="userSpaceOnUse">
<stop offset="0.512322" stop-color="#FF7AF2" stop-opacity="0"/>
<stop offset="0.933555" stop-color="#FF7AF2"/>
</linearGradient>
<radialGradient id="paint9_radial_157_970" cx="0" cy="0" r="1" gradientUnits="userSpaceOnUse" gradientTransform="translate(21.808 15.5557) rotate(-59.6724) scale(14.4818 13.582)">
<stop offset="0.671534" stop-color="#F9861D" stop-opacity="0"/>
<stop offset="1" stop-color="#FEA16F"/>
</radialGradient>
<radialGradient id="paint10_radial_157_970" cx="0" cy="0" r="1" gradientUnits="userSpaceOnUse" gradientTransform="translate(23.8705 12.9932) rotate(-130.441) scale(10.5024 10.6768)">
<stop offset="0.657254" stop-color="#C5A34C" stop-opacity="0"/>
<stop offset="0.906051" stop-color="#C5A34C"/>
</radialGradient>
<radialGradient id="paint11_radial_157_970" cx="0" cy="0" r="1" gradientUnits="userSpaceOnUse" gradientTransform="translate(18.4357 10.1897) rotate(90) scale(17.6875 5.77863)">
<stop offset="0.717703" stop-color="#FFBF2B"/>
<stop offset="1" stop-color="#FFBF2B" stop-opacity="0"/>
</radialGradient>
<radialGradient id="paint12_radial_157_970" cx="0" cy="0" r="1" gradientUnits="userSpaceOnUse" gradientTransform="translate(12.8227 6.14866) rotate(-175.801) scale(4.05458 1.67045)">
<stop stop-color="#FFE647"/>
<stop offset="1" stop-color="#FFE647" stop-opacity="0"/>
</radialGradient>
<radialGradient id="paint13_radial_157_970" cx="0" cy="0" r="1" gradientUnits="userSpaceOnUse" gradientTransform="translate(19.8351 10.0019) rotate(-135.564) scale(13.4799 38.0188)">
<stop stop-color="#FFE647"/>
<stop offset="1" stop-color="#FFE647" stop-opacity="0"/>
</radialGradient>
<radialGradient id="paint14_radial_157_970" cx="0" cy="0" r="1" gradientUnits="userSpaceOnUse" gradientTransform="translate(25.8339 6.70703) rotate(126.781) scale(7.91299 12.734)">
<stop stop-color="#FFE647"/>
<stop offset="1" stop-color="#FFE647" stop-opacity="0"/>
</radialGradient>
</defs>
</svg>
