<?xml version="1.0"?>
<svg xmlns="http://www.w3.org/2000/svg" xmlns:xlink="http://www.w3.org/1999/xlink" version="1.1" xml:space="preserve">
	<defs>

        <symbol id="loader" width="100%" height="100%" viewBox="22 22 44 44">
            <circle cx="44" cy="44" r="20.2" fill="none" stroke="currentColor" stroke-width="4"></circle>
        </symbol>

        <symbol id="burger" width="100%" height="100%" viewBox="0 0 48 48">
            <path d="M41,14H7a2,2,0,0,1,0-4H41A2,2,0,0,1,41,14Z" fill="currentColor"/>
            <path d="M41,26H7a2,2,0,0,1,0-4H41A2,2,0,0,1,41,26Z" fill="currentColor"/>
            <path d="M41,38H7a2,2,0,0,1,0-4H41A2,2,0,0,1,41,38Z" fill="currentColor"/>
        </symbol>

        <symbol id="close" width="100%" height="100%" viewBox="0 0 16 16">
            <path d="M1 15L15 1M1 1L15 15" stroke="currentColor" stroke-width="2" stroke-linecap="round" stroke-linejoin="round"/>
        </symbol>

        <symbol id="success" width="100%" height="100%" viewBox="0 0 68 68">
            <path fill-rule="evenodd" clip-rule="evenodd" d="M34 68C52.7777 68 68 52.7777 68 34C68 15.2223 52.7777 0 34 0C15.2223 0 0 15.2223 0 34C0 52.7777 15.2223 68 34 68ZM49.7552 28.5052C51.4149 26.8455 51.4149 24.1545 49.7552 22.4948C48.0955 20.8351 45.4045 20.8351 43.7448 22.4948L29.75 36.4896L24.2552 30.9948C22.5955 29.3351 19.9045 29.3351 18.2448 30.9948C16.5851 32.6545 16.5851 35.3455 18.2448 37.0052L26.7448 45.5052C28.4045 47.1649 31.0955 47.1649 32.7552 45.5052L49.7552 28.5052Z" fill="currentColor"/>
        </symbol>

        <symbol id="tg" width="100%" height="100%" viewBox="0 0 23 18">
            <path fill-rule="evenodd" clip-rule="evenodd" d="M2.14155 7.81259C7.38936 5.53354 10.8829 4.01917 12.6372 3.28448C17.6301 1.20034 18.6797 0.840494 19.3544 0.8255C19.5043 0.8255 19.8342 0.855488 20.0591 1.03541C20.239 1.18535 20.284 1.38027 20.314 1.53021C20.344 1.68014 20.374 1.99501 20.344 2.23491C20.0741 5.08372 18.9046 11.9958 18.3048 15.1745C18.0499 16.524 17.5551 16.9738 17.0753 17.0187C16.0258 17.1087 15.2311 16.329 14.2265 15.6693C12.6372 14.6347 11.7525 13.99 10.2082 12.9704C8.42393 11.8009 9.57845 11.1562 10.598 10.1066C10.8679 9.83674 15.471 5.63849 15.561 5.26365C15.576 5.21867 15.576 5.03874 15.471 4.94878C15.366 4.85882 15.2161 4.88881 15.0961 4.91879C14.9312 4.94878 12.4123 6.62808 7.50931 9.9417C6.78961 10.4365 6.14488 10.6764 5.56012 10.6614C4.91539 10.6464 3.6859 10.3015 2.75629 10.0017C1.63176 9.64182 0.732134 9.44691 0.807103 8.81717C0.852084 8.48731 1.3019 8.15744 2.14155 7.81259Z" fill="currentColor"/>
        </symbol>

        <symbol id="wa" width="100%" height="100%" viewBox="0 0 27 27">
            <path fill-rule="evenodd" clip-rule="evenodd" d="M22.6054 4.70613C20.1985 2.2964 16.9977 0.968757 13.5874 0.967285C6.56062 0.967285 0.84159 6.68595 0.838769 13.715C0.83791 15.9618 1.42483 18.1549 2.54052 20.0884L0.731934 26.6945L7.49012 24.9217C9.35218 25.9373 11.4486 26.4727 13.5823 26.4734H13.5875C20.6136 26.4734 26.3331 20.754 26.3361 13.7249C26.3373 10.3187 25.0124 7.11574 22.6054 4.70613ZM13.5875 24.3204H13.5833C11.6819 24.3197 9.81705 23.8088 8.19025 22.8434L7.80326 22.6139L3.79285 23.6658L4.86328 19.7557L4.61135 19.3546C3.55073 17.6677 2.99043 15.7178 2.99129 13.7156C2.99362 7.8734 7.74696 3.12042 13.5918 3.12042C16.4219 3.1214 19.0825 4.22495 21.083 6.22795C23.0836 8.23082 24.1845 10.893 24.1834 13.7243C24.1811 19.567 19.4278 24.3204 13.5875 24.3204ZM19.3997 16.3844C19.0811 16.225 17.5152 15.4544 17.2231 15.348C16.9312 15.2419 16.7187 15.1887 16.5064 15.5076C16.2941 15.8265 15.6835 16.5439 15.4977 16.7566C15.3119 16.9691 15.126 16.9958 14.8076 16.8362C14.489 16.6769 13.4627 16.3405 12.2459 15.2552C11.299 14.4106 10.6597 13.3675 10.4739 13.0484C10.2881 12.7295 10.454 12.5572 10.6136 12.3984C10.7569 12.2556 10.9321 12.0262 11.0915 11.8403C11.2508 11.6543 11.3038 11.5214 11.41 11.3088C11.5162 11.0962 11.4631 10.9102 11.3834 10.7508C11.3038 10.5912 10.6667 9.02331 10.4013 8.3855C10.1427 7.76448 9.8801 7.8485 9.68458 7.83869C9.499 7.82949 9.28644 7.8274 9.07399 7.8274C8.86167 7.8274 8.51664 7.90713 8.22459 8.22604C7.93267 8.54495 7.10976 9.31561 7.10976 10.8835C7.10976 12.4515 8.25108 13.9661 8.41042 14.1787C8.56963 14.3913 10.6566 17.6087 13.852 18.9886C14.6119 19.3169 15.2053 19.5127 15.6679 19.6597C16.4311 19.9022 17.1255 19.8678 17.6743 19.7859C18.2863 19.6944 19.5589 19.0153 19.8243 18.2712C20.0897 17.527 20.0897 16.8892 20.0101 16.7564C19.9305 16.6237 19.7182 16.5439 19.3997 16.3844Z" fill="currentColor"/>
        </symbol>

        <symbol id="play" width="100%" height="100%" viewBox="0 0 13 16">
            <path d="M12.0896 6.08053L4.02104 0.376908C2.69634 -0.559517 0.86657 0.387805 0.86657 2.01006V13.4173C0.86657 15.0396 2.69634 15.9869 4.02104 15.0505L12.0896 9.34684C13.217 8.54991 13.217 6.87747 12.0896 6.08053Z" fill="currentColor"/>
        </symbol>

        <symbol id="image" width="100%" height="100%" viewBox="0 0 24 24">
            <path d="M18 3H6C5.20435 3 4.44129 3.31607 3.87868 3.87868C3.31607 4.44129 3 5.20435 3 6V18C3 18.7956 3.31607 19.5587 3.87868 20.1213C4.44129 20.6839 5.20435 21 6 21H18C18.7956 21 19.5587 20.6839 20.1213 20.1213C20.6839 19.5587 21 18.7956 21 18V6C21 5.20435 20.6839 4.44129 20.1213 3.87868C19.5587 3.31607 18.7956 3 18 3ZM8 7C8.29667 7 8.58668 7.08797 8.83335 7.2528C9.08003 7.41762 9.27229 7.65189 9.38582 7.92597C9.49935 8.20006 9.52906 8.50166 9.47118 8.79264C9.4133 9.08361 9.27044 9.35088 9.06066 9.56066C8.85088 9.77044 8.58361 9.9133 8.29264 9.97118C8.00166 10.0291 7.70006 9.99935 7.42597 9.88582C7.15189 9.77229 6.91762 9.58003 6.7528 9.33335C6.58797 9.08668 6.5 8.79667 6.5 8.5C6.5 8.10218 6.65804 7.72064 6.93934 7.43934C7.22064 7.15804 7.60218 7 8 7ZM19 17.83C19.0221 18.1177 18.9292 18.4023 18.7418 18.6217C18.5543 18.841 18.2876 18.977 18 19H6L13.57 12.18C13.6971 12.0641 13.863 11.9998 14.035 11.9998C14.207 11.9998 14.3729 12.0641 14.5 12.18L19 16.66V17.83Z" fill="currentColor"/>
        </symbol>

        <symbol id="arrow" width="100%" height="100%" viewBox="0 0 7 13">
            <path d="M4.75364 6.05L0.268485 1.56485C-0.0894951 1.20687 -0.0894951 0.626466 0.268485 0.268485C0.626466 -0.0894951 1.20687 -0.0894951 1.56485 0.268485L6.69818 5.40182C7.05616 5.7598 7.05616 6.3402 6.69818 6.69818L1.56485 11.8315C1.20687 12.1895 0.626466 12.1895 0.268485 11.8315C-0.0894951 11.4735 -0.0894951 10.8931 0.268485 10.5351L4.75364 6.05Z" fill="currentColor"/>
        </symbol>

        <symbol id="geo" width="100%" height="100%" viewBox="0 0 24 24">
            <path d="M11.6585 0.00597109C6.89024 0.173279 2.92899 3.89342 2.47135 8.642C2.37786 9.59172 2.43198 10.5119 2.59929 11.3927C2.59929 11.3927 2.61405 11.4961 2.66326 11.6929C2.81089 12.3523 3.03232 12.992 3.30789 13.5923C4.26745 15.8658 6.48674 19.6696 11.4666 23.808C11.7717 24.0638 12.2195 24.0638 12.5295 23.808C17.5094 19.6745 19.7287 15.8707 20.6931 13.5874C20.9736 12.9871 21.1901 12.3523 21.3378 11.688C21.382 11.4961 21.4017 11.3878 21.4017 11.3878C21.5149 10.7973 21.574 10.1921 21.574 9.57204C21.574 4.16898 17.1009 -0.185941 11.6585 0.00597109ZM11.9981 14.3354C9.42938 14.3354 7.34788 12.2539 7.34788 9.68522C7.34788 7.11655 9.42938 5.03505 11.9981 5.03505C14.5667 5.03505 16.6482 7.11655 16.6482 9.68522C16.6482 12.2539 14.5667 14.3354 11.9981 14.3354Z" fill="currentColor"/>
        </symbol>

        <symbol id="phone" width="100%" height="100%" viewBox="0 0 24 24">
            <path d="M12.8 6.4C12.3584 6.4 12 6.7584 12 7.2C12 7.6416 12.3584 8 12.8 8C14.5648 8 16 9.4352 16 11.2C16 11.6416 16.3584 12 16.8 12C17.2416 12 17.6 11.6416 17.6 11.2C17.6 8.5536 15.4464 6.4 12.8 6.4Z" fill="currentColor"/>
            <path d="M12.8 3.2C12.3584 3.2 12 3.5584 12 4C12 4.4416 12.3584 4.8 12.8 4.8C16.3296 4.8 19.2 7.6704 19.2 11.2C19.2 11.6416 19.5584 12 20 12C20.4416 12 20.8 11.6416 20.8 11.2C20.8 6.7888 17.2112 3.2 12.8 3.2Z" fill="currentColor"/>
            <path d="M12.8 0C12.3584 0 12 0.3584 12 0.8C12 1.2416 12.3584 1.6 12.8 1.6C18.0944 1.6 22.4 5.9056 22.4 11.2C22.4 11.6416 22.7584 12 23.2 12C23.6416 12 24 11.6416 24 11.2C24 5.024 18.9744 0 12.8 0Z" fill="currentColor"/>
            <path d="M21.6 17.6C19.2768 17.6 17.064 17.0944 15.024 16.0976C14.832 16.0016 14.6112 15.9904 14.4112 16.0608C14.2096 16.1312 14.0448 16.2784 13.952 16.4688L12.6944 19.072C9.44 17.256 6.7456 14.5632 4.9312 11.3088L7.5328 10.048C7.7248 9.9552 7.8704 9.7904 7.9408 9.5888C8.0096 9.3888 7.9968 9.168 7.9024 8.976C6.9056 6.936 6.4 4.7232 6.4 2.4C6.4 1.9584 6.0416 1.6 5.6 1.6H0.8C0.3584 1.6 0 1.9584 0 2.4C0 14.3104 9.6896 24 21.6 24C22.0416 24 22.4 23.6416 22.4 23.2V18.4C22.4 17.9584 22.0416 17.6 21.6 17.6Z" fill="currentColor"/>
        </symbol>

        <symbol id="mail" width="100%" height="100%" viewBox="0 0 22 22">
            <path d="M2.11157 7.68509C2.38986 7.88147 3.22875 8.46472 4.62828 9.43455C6.02785 10.4044 7.10001 11.1511 7.84482 11.6748C7.92665 11.7322 8.1005 11.857 8.36645 12.0493C8.63245 12.2418 8.85347 12.3973 9.02934 12.516C9.20534 12.6346 9.41811 12.7676 9.66785 12.9149C9.91751 13.062 10.1529 13.1727 10.3738 13.246C10.5949 13.3199 10.7994 13.3565 10.9877 13.3565H11H11.0124C11.2006 13.3565 11.4053 13.3198 11.6263 13.246C11.8472 13.1727 12.0827 13.0619 12.3322 12.9149C12.5818 12.7674 12.7945 12.6345 12.9705 12.516C13.1465 12.3973 13.3674 12.2418 13.6335 12.0493C13.8994 11.8568 14.0734 11.7322 14.1553 11.6748C14.9081 11.1511 16.8235 9.82108 19.9007 7.68483C20.4982 7.2676 20.9973 6.76415 21.3983 6.17483C21.7996 5.58577 22 4.96782 22 4.32131C22 3.78106 21.8055 3.31859 21.4167 2.93396C21.0279 2.54923 20.5675 2.35698 20.0357 2.35698H1.9642C1.33404 2.35698 0.849081 2.56974 0.509423 2.99527C0.169808 3.42089 0 3.95289 0 4.59122C0 5.10684 0.225149 5.66558 0.675231 6.26711C1.12527 6.86869 1.60421 7.34139 2.11157 7.68509Z" fill="currentColor"/>
            <path d="M20.7722 8.99837C18.0879 10.8152 16.0497 12.2271 14.6585 13.2339C14.192 13.5775 13.8136 13.8458 13.5229 14.038C13.2323 14.2303 12.8458 14.4268 12.3628 14.6272C11.88 14.8279 11.43 14.928 11.0125 14.928H11H10.9877C10.5703 14.928 10.1201 14.8279 9.63727 14.6272C9.15447 14.4268 8.76768 14.2303 8.47713 14.038C8.18666 13.8458 7.80809 13.5775 7.34162 13.2339C6.23665 12.4237 4.20283 11.0117 1.24008 8.99837C0.773443 8.68757 0.360126 8.33131 0 7.93034V17.6778C0 18.2183 0.192254 18.6805 0.576976 19.0652C0.961612 19.45 1.42412 19.6424 1.96433 19.6424H20.0358C20.5759 19.6424 21.0384 19.45 21.423 19.0652C21.8079 18.6804 22 18.2184 22 17.6778V7.93034C21.648 8.32301 21.2389 8.67927 20.7722 8.99837Z" fill="currentColor"/>
        </symbol>

        <symbol id="oclock" width="100%" height="100%" viewBox="0 0 22 22">
            <path d="M11 0C4.95 0 0 4.95 0 11C0 17.05 4.95 22 11 22C17.05 22 22 17.05 22 11C22 4.95 17.05 0 11 0ZM15.73 14.52L9.9 11.33V5.5H11.55V10.34L16.5 13.09L15.73 14.52Z" fill="currentColor"/>
        </symbol>

        <symbol id="check" width="100%" height="100%" viewBox="0 0 28 28">
            <path d="M5.83333 4.66666H22.1667C22.7855 4.66666 23.379 4.9125 23.8166 5.35008C24.2542 5.78767 24.5 6.38116 24.5 7V14C24.5 16.7848 23.3938 19.4555 21.4246 21.4246C19.4555 23.3937 16.7848 24.5 14 24.5C11.2152 24.5 8.54451 23.3937 6.57538 21.4246C4.60625 19.4555 3.5 16.7848 3.5 14V7C3.5 6.38116 3.74583 5.78767 4.18342 5.35008C4.621 4.9125 5.21449 4.66666 5.83333 4.66666Z" fill="currentColor"/>
            <path d="M9.33301 12.8333L13.9997 17.5L18.6663 12.8333" fill="rgba(0, 0, 0, 0)" stroke="white" stroke-width="2" stroke-linecap="round" stroke-linejoin="round"/>
        </symbol>

    </defs>
</svg>